<svg xmlns="http://www.w3.org/2000/svg" xmlns:xlink="http://www.w3.org/1999/xlink" width="84" zoomAndPan="magnify" viewBox="0 0 63 80.999996" height="108" preserveAspectRatio="xMidYMid meet" version="1.0"><defs><filter x="0%" y="0%" width="100%" height="100%" id="68107422bf"><feColorMatrix values="0 0 0 0 1 0 0 0 0 1 0 0 0 0 1 0 0 0 1 0" color-interpolation-filters="sRGB"/></filter><g/><clipPath id="7aedbb3d47"><path d="M 6.300781 6.300781 L 56.726562 6.300781 L 56.726562 45.898438 L 6.300781 45.898438 Z M 6.300781 6.300781 " clip-rule="nonzero"/></clipPath><clipPath id="0f1afd97fd"><path d="M 56.699219 9.300781 L 56.699219 42.898438 C 56.699219 44.558594 55.355469 45.898438 53.699219 45.898438 L 9.300781 45.898438 C 7.644531 45.898438 6.300781 44.558594 6.300781 42.898438 L 6.300781 9.300781 C 6.300781 7.644531 7.644531 6.300781 9.300781 6.300781 L 53.699219 6.300781 C 55.355469 6.300781 56.699219 7.644531 56.699219 9.300781 Z M 56.699219 9.300781 " clip-rule="nonzero"/></clipPath><clipPath id="0b9cca1c1e"><path d="M 0.300781 0.300781 L 50.726562 0.300781 L 50.726562 39.898438 L 0.300781 39.898438 Z M 0.300781 0.300781 " clip-rule="nonzero"/></clipPath><clipPath id="8c6e664f91"><path d="M 50.699219 3.300781 L 50.699219 36.898438 C 50.699219 38.558594 49.355469 39.898438 47.699219 39.898438 L 3.300781 39.898438 C 1.644531 39.898438 0.300781 38.558594 0.300781 36.898438 L 0.300781 3.300781 C 0.300781 1.644531 1.644531 0.300781 3.300781 0.300781 L 47.699219 0.300781 C 49.355469 0.300781 50.699219 1.644531 50.699219 3.300781 Z M 50.699219 3.300781 " clip-rule="nonzero"/></clipPath><clipPath id="e87e005bc2"><rect x="0" width="51" y="0" height="40"/></clipPath><clipPath id="95be4503ec"><path d="M 8.703125 10.320312 L 25.953125 10.320312 L 25.953125 27.773438 L 8.703125 27.773438 Z M 8.703125 10.320312 " clip-rule="nonzero"/></clipPath><clipPath id="465d9e6f00"><path d="M 11.703125 10.320312 L 22.953125 10.320312 C 24.609375 10.320312 25.953125 11.664062 25.953125 13.320312 L 25.953125 24.71875 C 25.953125 26.378906 24.609375 27.71875 22.953125 27.71875 L 11.703125 27.71875 C 10.046875 27.71875 8.703125 26.378906 8.703125 24.71875 L 8.703125 13.320312 C 8.703125 11.664062 10.046875 10.320312 11.703125 10.320312 Z M 11.703125 10.320312 " clip-rule="nonzero"/></clipPath><clipPath id="8fa7b4b383"><path d="M 0.703125 0.320312 L 17.953125 0.320312 L 17.953125 17.773438 L 0.703125 17.773438 Z M 0.703125 0.320312 " clip-rule="nonzero"/></clipPath><clipPath id="9a3b428cc5"><path d="M 3.703125 0.320312 L 14.953125 0.320312 C 16.609375 0.320312 17.953125 1.664062 17.953125 3.320312 L 17.953125 14.71875 C 17.953125 16.378906 16.609375 17.71875 14.953125 17.71875 L 3.703125 17.71875 C 2.046875 17.71875 0.703125 16.378906 0.703125 14.71875 L 0.703125 3.320312 C 0.703125 1.664062 2.046875 0.320312 3.703125 0.320312 Z M 3.703125 0.320312 " clip-rule="nonzero"/></clipPath><clipPath id="c21c109885"><rect x="0" width="18" y="0" height="18"/></clipPath><clipPath id="3cfddffb14"><path d="M 11.890625 14.425781 L 23 14.425781 L 23 23.425781 L 11.890625 23.425781 Z M 11.890625 14.425781 " clip-rule="nonzero"/></clipPath><mask id="0877d2051b"><g filter="url(#68107422bf)"><rect x="-6.3" width="75.6" fill="#000000" y="-8.1" height="97.199995" fill-opacity="0.7"/></g></mask><clipPath id="85e181c904"><path d="M 0.0625 0.925781 L 40.957031 0.925781 L 40.957031 9.699219 L 0.0625 9.699219 Z M 0.0625 0.925781 " clip-rule="nonzero"/></clipPath><clipPath id="9d9cb8fcdd"><path d="M 37.15625 0.925781 C 39.242188 0.925781 40.9375 2.890625 40.9375 5.3125 C 40.9375 7.734375 39.242188 9.699219 37.15625 9.699219 L 3.84375 9.699219 C 1.757812 9.699219 0.0625 7.734375 0.0625 5.3125 C 0.0625 2.890625 1.757812 0.925781 3.84375 0.925781 Z M 37.15625 0.925781 " clip-rule="nonzero"/></clipPath><clipPath id="d1ede2881a"><path d="M 0.0625 0.925781 L 40.957031 0.925781 L 40.957031 9.699219 L 0.0625 9.699219 Z M 0.0625 0.925781 " clip-rule="nonzero"/></clipPath><clipPath id="ed7413e4e4"><path d="M 37.15625 0.925781 C 39.242188 0.925781 40.9375 2.890625 40.9375 5.3125 C 40.9375 7.734375 39.242188 9.699219 37.15625 9.699219 L 3.84375 9.699219 C 1.757812 9.699219 0.0625 7.734375 0.0625 5.3125 C 0.0625 2.890625 1.757812 0.925781 3.84375 0.925781 Z M 37.15625 0.925781 " clip-rule="nonzero"/></clipPath><clipPath id="859309d14a"><rect x="0" width="41" y="0" height="10"/></clipPath><clipPath id="fb7b6be5c0"><rect x="0" width="42" y="0" height="10"/></clipPath><mask id="690dd658af"><g filter="url(#68107422bf)"><rect x="-6.3" width="75.6" fill="#000000" y="-8.1" height="97.199995" fill-opacity="0.7"/></g></mask><clipPath id="b58f073b18"><path d="M 0.425781 0.796875 L 26.300781 0.796875 L 26.300781 7.019531 L 0.425781 7.019531 Z M 0.425781 0.796875 " clip-rule="nonzero"/></clipPath><clipPath id="02420028d1"><path d="M 22.519531 0.796875 C 24.605469 0.796875 26.300781 2.1875 26.300781 3.90625 C 26.300781 5.628906 24.605469 7.019531 22.519531 7.019531 L 4.210938 7.019531 C 2.121094 7.019531 0.425781 5.628906 0.425781 3.90625 C 0.425781 2.1875 2.121094 0.796875 4.210938 0.796875 Z M 22.519531 0.796875 " clip-rule="nonzero"/></clipPath><clipPath id="2355edb0f8"><path d="M 0.425781 0.796875 L 26.300781 0.796875 L 26.300781 7.019531 L 0.425781 7.019531 Z M 0.425781 0.796875 " clip-rule="nonzero"/></clipPath><clipPath id="b0166f0568"><path d="M 22.519531 0.796875 C 24.605469 0.796875 26.300781 2.1875 26.300781 3.90625 C 26.300781 5.628906 24.605469 7.019531 22.519531 7.019531 L 4.210938 7.019531 C 2.121094 7.019531 0.425781 5.628906 0.425781 3.90625 C 0.425781 2.1875 2.121094 0.796875 4.210938 0.796875 Z M 22.519531 0.796875 " clip-rule="nonzero"/></clipPath><clipPath id="8afa9ce555"><rect x="0" width="27" y="0" height="8"/></clipPath><clipPath id="1723ffc4ab"><rect x="0" width="27" y="0" height="8"/></clipPath><mask id="1a656362bf"><g filter="url(#68107422bf)"><rect x="-6.3" width="75.6" fill="#000000" y="-8.1" height="97.199995" fill-opacity="0.7"/></g></mask><clipPath id="3353041748"><path d="M 0.425781 0.496094 L 22.894531 0.496094 L 22.894531 6.71875 L 0.425781 6.71875 Z M 0.425781 0.496094 " clip-rule="nonzero"/></clipPath><clipPath id="25f57eab80"><path d="M 19.105469 0.496094 C 21.191406 0.496094 22.886719 1.890625 22.886719 3.609375 C 22.886719 5.328125 21.191406 6.71875 19.105469 6.71875 L 4.210938 6.71875 C 2.121094 6.71875 0.425781 5.328125 0.425781 3.609375 C 0.425781 1.890625 2.121094 0.496094 4.210938 0.496094 Z M 19.105469 0.496094 " clip-rule="nonzero"/></clipPath><clipPath id="4f7198596e"><path d="M 0.425781 0.496094 L 22.894531 0.496094 L 22.894531 6.71875 L 0.425781 6.71875 Z M 0.425781 0.496094 " clip-rule="nonzero"/></clipPath><clipPath id="ae53b40aca"><path d="M 19.105469 0.496094 C 21.191406 0.496094 22.886719 1.890625 22.886719 3.609375 C 22.886719 5.328125 21.191406 6.71875 19.105469 6.71875 L 4.210938 6.71875 C 2.121094 6.71875 0.425781 5.328125 0.425781 3.609375 C 0.425781 1.890625 2.121094 0.496094 4.210938 0.496094 Z M 19.105469 0.496094 " clip-rule="nonzero"/></clipPath><clipPath id="72f8619551"><rect x="0" width="23" y="0" height="7"/></clipPath><clipPath id="fb56c20e6d"><rect x="0" width="24" y="0" height="7"/></clipPath><clipPath id="2ca81910c9"><path d="M 0.441406 1 L 5 1 L 5 6 L 0.441406 6 Z M 0.441406 1 " clip-rule="nonzero"/></clipPath><clipPath id="40c8909389"><rect x="0" width="13" y="0" height="9"/></clipPath><clipPath id="b28225097f"><path d="M 6.300781 53.398438 L 56.726562 53.398438 L 56.726562 81 L 6.300781 81 Z M 6.300781 53.398438 " clip-rule="nonzero"/></clipPath><clipPath id="e08ae9c2d6"><path d="M 56.699219 56.398438 L 56.699219 90 C 56.699219 91.65625 55.355469 93 53.699219 93 L 9.300781 93 C 7.644531 93 6.300781 91.65625 6.300781 90 L 6.300781 56.398438 C 6.300781 54.742188 7.644531 53.398438 9.300781 53.398438 L 53.699219 53.398438 C 55.355469 53.398438 56.699219 54.742188 56.699219 56.398438 Z M 56.699219 56.398438 " clip-rule="nonzero"/></clipPath><clipPath id="8c33b6acbf"><path d="M 0.300781 0.398438 L 50.726562 0.398438 L 50.726562 28 L 0.300781 28 Z M 0.300781 0.398438 " clip-rule="nonzero"/></clipPath><clipPath id="e64546d93a"><path d="M 50.699219 3.398438 L 50.699219 37 C 50.699219 38.65625 49.355469 40 47.699219 40 L 3.300781 40 C 1.644531 40 0.300781 38.65625 0.300781 37 L 0.300781 3.398438 C 0.300781 1.742188 1.644531 0.398438 3.300781 0.398438 L 47.699219 0.398438 C 49.355469 0.398438 50.699219 1.742188 50.699219 3.398438 Z M 50.699219 3.398438 " clip-rule="nonzero"/></clipPath><clipPath id="0b9abfe89c"><rect x="0" width="51" y="0" height="28"/></clipPath><clipPath id="3be947d152"><path d="M 8.703125 57.421875 L 25.953125 57.421875 L 25.953125 74.871094 L 8.703125 74.871094 Z M 8.703125 57.421875 " clip-rule="nonzero"/></clipPath><clipPath id="8faab2431b"><path d="M 11.703125 57.421875 L 22.953125 57.421875 C 24.609375 57.421875 25.953125 58.765625 25.953125 60.421875 L 25.953125 71.820312 C 25.953125 73.476562 24.609375 74.820312 22.953125 74.820312 L 11.703125 74.820312 C 10.046875 74.820312 8.703125 73.476562 8.703125 71.820312 L 8.703125 60.421875 C 8.703125 58.765625 10.046875 57.421875 11.703125 57.421875 Z M 11.703125 57.421875 " clip-rule="nonzero"/></clipPath><clipPath id="2e5783df0b"><path d="M 0.703125 0.421875 L 17.953125 0.421875 L 17.953125 17.871094 L 0.703125 17.871094 Z M 0.703125 0.421875 " clip-rule="nonzero"/></clipPath><clipPath id="8a554720f2"><path d="M 3.703125 0.421875 L 14.953125 0.421875 C 16.609375 0.421875 17.953125 1.765625 17.953125 3.421875 L 17.953125 14.820312 C 17.953125 16.476562 16.609375 17.820312 14.953125 17.820312 L 3.703125 17.820312 C 2.046875 17.820312 0.703125 16.476562 0.703125 14.820312 L 0.703125 3.421875 C 0.703125 1.765625 2.046875 0.421875 3.703125 0.421875 Z M 3.703125 0.421875 " clip-rule="nonzero"/></clipPath><clipPath id="88dd21c317"><rect x="0" width="18" y="0" height="18"/></clipPath><clipPath id="da513596db"><path d="M 11.890625 61.527344 L 23 61.527344 L 23 70.527344 L 11.890625 70.527344 Z M 11.890625 61.527344 " clip-rule="nonzero"/></clipPath><mask id="4fe9ac3022"><g filter="url(#68107422bf)"><rect x="-6.3" width="75.6" fill="#000000" y="-8.1" height="97.199995" fill-opacity="0.7"/></g></mask><clipPath id="0134958632"><path d="M 0.0625 1.023438 L 40.957031 1.023438 L 40.957031 2 L 0.0625 2 Z M 0.0625 1.023438 " clip-rule="nonzero"/></clipPath><clipPath id="d981f8c67c"><path d="M 37.15625 1.023438 C 39.242188 1.023438 40.9375 2.988281 40.9375 5.414062 C 40.9375 7.835938 39.242188 9.800781 37.15625 9.800781 L 3.84375 9.800781 C 1.757812 9.800781 0.0625 7.835938 0.0625 5.414062 C 0.0625 2.988281 1.757812 1.023438 3.84375 1.023438 Z M 37.15625 1.023438 " clip-rule="nonzero"/></clipPath><clipPath id="4ef29fbc6a"><path d="M 0.0625 0.0234375 L 40.957031 0.0234375 L 40.957031 1 L 0.0625 1 Z M 0.0625 0.0234375 " clip-rule="nonzero"/></clipPath><clipPath id="8b2e7cae8e"><path d="M 37.15625 0.0234375 C 39.242188 0.0234375 40.9375 1.988281 40.9375 4.414062 C 40.9375 6.835938 39.242188 8.800781 37.15625 8.800781 L 3.84375 8.800781 C 1.757812 8.800781 0.0625 6.835938 0.0625 4.414062 C 0.0625 1.988281 1.757812 0.0234375 3.84375 0.0234375 Z M 37.15625 0.0234375 " clip-rule="nonzero"/></clipPath><clipPath id="fe92831b25"><rect x="0" width="41" y="0" height="1"/></clipPath><clipPath id="ab58b3deb8"><rect x="0" width="42" y="0" height="2"/></clipPath><mask id="279bfe3528"><g filter="url(#68107422bf)"><rect x="-6.3" width="75.6" fill="#000000" y="-8.1" height="97.199995" fill-opacity="0.7"/></g></mask><clipPath id="fc3d7e317a"><path d="M 0.425781 0.894531 L 26.300781 0.894531 L 26.300781 7.121094 L 0.425781 7.121094 Z M 0.425781 0.894531 " clip-rule="nonzero"/></clipPath><clipPath id="78d08f19a8"><path d="M 22.519531 0.894531 C 24.605469 0.894531 26.300781 2.289062 26.300781 4.007812 C 26.300781 5.726562 24.605469 7.121094 22.519531 7.121094 L 4.210938 7.121094 C 2.121094 7.121094 0.425781 5.726562 0.425781 4.007812 C 0.425781 2.289062 2.121094 0.894531 4.210938 0.894531 Z M 22.519531 0.894531 " clip-rule="nonzero"/></clipPath><clipPath id="8eed5b439b"><path d="M 0.425781 0.894531 L 26.300781 0.894531 L 26.300781 7.121094 L 0.425781 7.121094 Z M 0.425781 0.894531 " clip-rule="nonzero"/></clipPath><clipPath id="2c62bb3514"><path d="M 22.519531 0.894531 C 24.605469 0.894531 26.300781 2.289062 26.300781 4.007812 C 26.300781 5.726562 24.605469 7.121094 22.519531 7.121094 L 4.210938 7.121094 C 2.121094 7.121094 0.425781 5.726562 0.425781 4.007812 C 0.425781 2.289062 2.121094 0.894531 4.210938 0.894531 Z M 22.519531 0.894531 " clip-rule="nonzero"/></clipPath><clipPath id="fdf3a0c071"><rect x="0" width="27" y="0" height="8"/></clipPath><clipPath id="03b5f536bb"><rect x="0" width="27" y="0" height="8"/></clipPath><mask id="466740f23e"><g filter="url(#68107422bf)"><rect x="-6.3" width="75.6" fill="#000000" y="-8.1" height="97.199995" fill-opacity="0.7"/></g></mask><clipPath id="3a989ba41b"><path d="M 0.425781 0.59375 L 22.894531 0.59375 L 22.894531 6.820312 L 0.425781 6.820312 Z M 0.425781 0.59375 " clip-rule="nonzero"/></clipPath><clipPath id="291f2b21b8"><path d="M 19.105469 0.59375 C 21.191406 0.59375 22.886719 1.988281 22.886719 3.707031 C 22.886719 5.425781 21.191406 6.820312 19.105469 6.820312 L 4.210938 6.820312 C 2.121094 6.820312 0.425781 5.425781 0.425781 3.707031 C 0.425781 1.988281 2.121094 0.59375 4.210938 0.59375 Z M 19.105469 0.59375 " clip-rule="nonzero"/></clipPath><clipPath id="cd21412559"><path d="M 0.425781 0.59375 L 22.894531 0.59375 L 22.894531 6.820312 L 0.425781 6.820312 Z M 0.425781 0.59375 " clip-rule="nonzero"/></clipPath><clipPath id="4c275063e3"><path d="M 19.105469 0.59375 C 21.191406 0.59375 22.886719 1.988281 22.886719 3.707031 C 22.886719 5.425781 21.191406 6.820312 19.105469 6.820312 L 4.210938 6.820312 C 2.121094 6.820312 0.425781 5.425781 0.425781 3.707031 C 0.425781 1.988281 2.121094 0.59375 4.210938 0.59375 Z M 19.105469 0.59375 " clip-rule="nonzero"/></clipPath><clipPath id="fd628ff19d"><rect x="0" width="23" y="0" height="7"/></clipPath><clipPath id="33bcd6edab"><rect x="0" width="24" y="0" height="7"/></clipPath></defs><rect x="-6.3" width="75.6" fill="#ffffff" y="-8.1" height="97.199995" fill-opacity="1"/><rect x="-6.3" width="75.6" fill="#ffffff" y="-8.1" height="97.199995" fill-opacity="1"/><g clip-path="url(#7aedbb3d47)"><g clip-path="url(#0f1afd97fd)"><g transform="matrix(1, 0, 0, 1, 6, 6)"><g clip-path="url(#e87e005bc2)"><g clip-path="url(#0b9cca1c1e)"><g clip-path="url(#8c6e664f91)"><path fill="#745eaf" d="M 0.300781 0.300781 L 50.726562 0.300781 L 50.726562 39.898438 L 0.300781 39.898438 Z M 0.300781 0.300781 " fill-opacity="1" fill-rule="nonzero"/></g></g></g></g></g></g><g clip-path="url(#95be4503ec)"><g clip-path="url(#465d9e6f00)"><g transform="matrix(1, 0, 0, 1, 8, 10)"><g clip-path="url(#c21c109885)"><g clip-path="url(#8fa7b4b383)"><g clip-path="url(#9a3b428cc5)"><path fill="#e5e5ff" d="M 0.703125 0.320312 L 17.953125 0.320312 L 17.953125 17.707031 L 0.703125 17.707031 Z M 0.703125 0.320312 " fill-opacity="1" fill-rule="nonzero"/></g></g></g></g></g></g><g clip-path="url(#3cfddffb14)"><path fill="#ffffff" d="M 21.246094 14.421875 L 13.40625 14.421875 C 12.574219 14.421875 11.894531 15.097656 11.894531 15.933594 L 11.894531 22.09375 C 11.894531 22.929688 12.574219 23.605469 13.40625 23.605469 L 21.246094 23.605469 C 22.082031 23.605469 22.761719 22.929688 22.761719 22.09375 L 22.761719 15.933594 C 22.761719 15.097656 22.082031 14.421875 21.246094 14.421875 Z M 21.976562 21.679688 L 20.496094 20.109375 C 20.074219 19.660156 19.382812 19.660156 18.960938 20.109375 L 17.777344 21.363281 L 16.125 19.558594 C 15.707031 19.105469 15.027344 19.105469 14.609375 19.558594 L 12.679688 21.667969 L 12.679688 15.933594 C 12.679688 15.53125 13.003906 15.203125 13.40625 15.203125 L 21.246094 15.203125 C 21.648438 15.203125 21.976562 15.53125 21.976562 15.933594 Z M 21.976562 21.679688 " fill-opacity="1" fill-rule="nonzero"/></g><path fill="#ffffff" d="M 20.773438 17.347656 C 20.773438 17.496094 20.746094 17.636719 20.6875 17.773438 C 20.632812 17.914062 20.550781 18.035156 20.445312 18.136719 C 20.339844 18.242188 20.21875 18.324219 20.082031 18.382812 C 19.945312 18.4375 19.800781 18.464844 19.652344 18.464844 C 19.503906 18.464844 19.363281 18.4375 19.226562 18.382812 C 19.085938 18.324219 18.964844 18.242188 18.863281 18.136719 C 18.757812 18.035156 18.675781 17.914062 18.617188 17.773438 C 18.5625 17.636719 18.535156 17.496094 18.535156 17.347656 C 18.535156 17.199219 18.5625 17.054688 18.617188 16.917969 C 18.675781 16.78125 18.757812 16.660156 18.863281 16.554688 C 18.964844 16.449219 19.085938 16.367188 19.226562 16.3125 C 19.363281 16.253906 19.503906 16.226562 19.652344 16.226562 C 19.800781 16.226562 19.945312 16.253906 20.082031 16.3125 C 20.21875 16.367188 20.339844 16.449219 20.445312 16.554688 C 20.550781 16.660156 20.632812 16.78125 20.6875 16.917969 C 20.746094 17.054688 20.773438 17.199219 20.773438 17.347656 Z M 20.773438 17.347656 " fill-opacity="1" fill-rule="nonzero"/><g mask="url(#0877d2051b)"><g transform="matrix(1, 0, 0, 1, 11, 32)"><g clip-path="url(#fb7b6be5c0)"><g clip-path="url(#85e181c904)"><g clip-path="url(#9d9cb8fcdd)"><g transform="matrix(1, 0, 0, 1, 0, 0.000000000000014211)"><g clip-path="url(#859309d14a)"><g clip-path="url(#d1ede2881a)"><g clip-path="url(#ed7413e4e4)"><path fill="#e5e5ff" d="M 0.0625 0.925781 L 40.921875 0.925781 L 40.921875 9.699219 L 0.0625 9.699219 Z M 0.0625 0.925781 " fill-opacity="1" fill-rule="nonzero"/></g></g></g></g></g></g></g></g></g><g mask="url(#690dd658af)"><g transform="matrix(1, 0, 0, 1, 28, 12)"><g clip-path="url(#1723ffc4ab)"><g clip-path="url(#b58f073b18)"><g clip-path="url(#02420028d1)"><g transform="matrix(1, 0, 0, 1, 0, 0.000000000000007105)"><g clip-path="url(#8afa9ce555)"><g clip-path="url(#2355edb0f8)"><g clip-path="url(#b0166f0568)"><path fill="#e5e5ff" d="M 0.425781 0.796875 L 26.300781 0.796875 L 26.300781 7.019531 L 0.425781 7.019531 Z M 0.425781 0.796875 " fill-opacity="1" fill-rule="nonzero"/></g></g></g></g></g></g></g></g></g><g mask="url(#1a656362bf)"><g transform="matrix(1, 0, 0, 1, 28, 21)"><g clip-path="url(#fb56c20e6d)"><g clip-path="url(#3353041748)"><g clip-path="url(#25f57eab80)"><g transform="matrix(1, 0, 0, 1, 0, 0.000000000000007105)"><g clip-path="url(#72f8619551)"><g clip-path="url(#4f7198596e)"><g clip-path="url(#ae53b40aca)"><path fill="#e5e5ff" d="M 0.425781 0.496094 L 22.894531 0.496094 L 22.894531 6.71875 L 0.425781 6.71875 Z M 0.425781 0.496094 " fill-opacity="1" fill-rule="nonzero"/></g></g></g></g></g></g></g></g></g><g transform="matrix(1, 0, 0, 1, 25, 33)"><g clip-path="url(#40c8909389)"><g clip-path="url(#2ca81910c9)"><g fill="#ffffff" fill-opacity="1"><g transform="translate(0.497608, 5.736828)"><g><path d="M 0.1875 -1.921875 C 0.1875 -2.304688 0.265625 -2.644531 0.421875 -2.9375 C 0.585938 -3.238281 0.816406 -3.472656 1.109375 -3.640625 C 1.398438 -3.804688 1.734375 -3.890625 2.109375 -3.890625 C 2.566406 -3.890625 2.957031 -3.765625 3.28125 -3.515625 C 3.601562 -3.273438 3.820312 -2.945312 3.9375 -2.53125 L 2.90625 -2.53125 C 2.832031 -2.695312 2.722656 -2.820312 2.578125 -2.90625 C 2.441406 -2.988281 2.28125 -3.03125 2.09375 -3.03125 C 1.8125 -3.03125 1.578125 -2.925781 1.390625 -2.71875 C 1.210938 -2.519531 1.125 -2.253906 1.125 -1.921875 C 1.125 -1.585938 1.210938 -1.320312 1.390625 -1.125 C 1.578125 -0.925781 1.8125 -0.828125 2.09375 -0.828125 C 2.28125 -0.828125 2.441406 -0.867188 2.578125 -0.953125 C 2.722656 -1.035156 2.832031 -1.15625 2.90625 -1.3125 L 3.9375 -1.3125 C 3.820312 -0.894531 3.601562 -0.566406 3.28125 -0.328125 C 2.957031 -0.0859375 2.566406 0.03125 2.109375 0.03125 C 1.734375 0.03125 1.398438 -0.0507812 1.109375 -0.21875 C 0.816406 -0.382812 0.585938 -0.613281 0.421875 -0.90625 C 0.265625 -1.207031 0.1875 -1.546875 0.1875 -1.921875 Z M 0.1875 -1.921875 "/></g></g></g></g><g fill="#ffffff" fill-opacity="1"><g transform="translate(4.66539, 5.736828)"><g><path d="M 3.09375 -3.84375 L 3.09375 -3.09375 L 2.078125 -3.09375 L 2.078125 0 L 1.15625 0 L 1.15625 -3.09375 L 0.125 -3.09375 L 0.125 -3.84375 Z M 3.09375 -3.84375 "/></g></g></g><g fill="#ffffff" fill-opacity="1"><g transform="translate(7.897888, 5.736828)"><g><path d="M 2.734375 -0.671875 L 1.296875 -0.671875 L 1.0625 0 L 0.09375 0 L 1.484375 -3.84375 L 2.5625 -3.84375 L 3.953125 0 L 2.953125 0 Z M 2.484375 -1.40625 L 2.015625 -2.8125 L 1.546875 -1.40625 Z M 2.484375 -1.40625 "/></g></g></g></g></g><g clip-path="url(#b28225097f)"><g clip-path="url(#e08ae9c2d6)"><g transform="matrix(1, 0, 0, 1, 6, 53)"><g clip-path="url(#0b9abfe89c)"><g clip-path="url(#8c33b6acbf)"><g clip-path="url(#e64546d93a)"><path fill="#745eaf" d="M 0.300781 0.398438 L 50.726562 0.398438 L 50.726562 40 L 0.300781 40 Z M 0.300781 0.398438 " fill-opacity="1" fill-rule="nonzero"/></g></g></g></g></g></g><g clip-path="url(#3be947d152)"><g clip-path="url(#8faab2431b)"><g transform="matrix(1, 0, 0, 1, 8, 57)"><g clip-path="url(#88dd21c317)"><g clip-path="url(#2e5783df0b)"><g clip-path="url(#8a554720f2)"><path fill="#e5e5ff" d="M 0.703125 0.421875 L 17.953125 0.421875 L 17.953125 17.804688 L 0.703125 17.804688 Z M 0.703125 0.421875 " fill-opacity="1" fill-rule="nonzero"/></g></g></g></g></g></g><g clip-path="url(#da513596db)"><path fill="#ffffff" d="M 21.246094 61.519531 L 13.40625 61.519531 C 12.574219 61.519531 11.894531 62.199219 11.894531 63.03125 L 11.894531 69.195312 C 11.894531 70.027344 12.574219 70.707031 13.40625 70.707031 L 21.246094 70.707031 C 22.082031 70.707031 22.761719 70.027344 22.761719 69.195312 L 22.761719 63.03125 C 22.761719 62.199219 22.082031 61.519531 21.246094 61.519531 Z M 21.976562 68.777344 L 20.496094 67.207031 C 20.074219 66.761719 19.382812 66.761719 18.960938 67.207031 L 17.777344 68.460938 L 16.125 66.660156 C 15.707031 66.207031 15.027344 66.207031 14.609375 66.660156 L 12.679688 68.765625 L 12.679688 63.03125 C 12.679688 62.632812 13.003906 62.304688 13.40625 62.304688 L 21.246094 62.304688 C 21.648438 62.304688 21.976562 62.632812 21.976562 63.03125 Z M 21.976562 68.777344 " fill-opacity="1" fill-rule="nonzero"/></g><path fill="#ffffff" d="M 20.773438 64.445312 C 20.773438 64.59375 20.746094 64.738281 20.6875 64.875 C 20.632812 65.011719 20.550781 65.132812 20.445312 65.238281 C 20.339844 65.34375 20.21875 65.425781 20.082031 65.480469 C 19.945312 65.539062 19.800781 65.566406 19.652344 65.566406 C 19.503906 65.566406 19.363281 65.539062 19.226562 65.480469 C 19.085938 65.425781 18.964844 65.34375 18.863281 65.238281 C 18.757812 65.132812 18.675781 65.011719 18.617188 64.875 C 18.5625 64.738281 18.535156 64.59375 18.535156 64.445312 C 18.535156 64.296875 18.5625 64.15625 18.617188 64.019531 C 18.675781 63.878906 18.757812 63.757812 18.863281 63.652344 C 18.964844 63.550781 19.085938 63.46875 19.226562 63.410156 C 19.363281 63.355469 19.503906 63.324219 19.652344 63.324219 C 19.800781 63.324219 19.945312 63.355469 20.082031 63.410156 C 20.21875 63.46875 20.339844 63.550781 20.445312 63.652344 C 20.550781 63.757812 20.632812 63.878906 20.6875 64.019531 C 20.746094 64.15625 20.773438 64.296875 20.773438 64.445312 Z M 20.773438 64.445312 " fill-opacity="1" fill-rule="nonzero"/><g mask="url(#4fe9ac3022)"><g transform="matrix(1, 0, 0, 1, 11, 79)"><g clip-path="url(#ab58b3deb8)"><g clip-path="url(#0134958632)"><g clip-path="url(#d981f8c67c)"><g transform="matrix(1, 0, 0, 1, 0, 1)"><g clip-path="url(#fe92831b25)"><g clip-path="url(#4ef29fbc6a)"><g clip-path="url(#8b2e7cae8e)"><path fill="#e5e5ff" d="M 0.0625 0.0234375 L 40.921875 0.0234375 L 40.921875 8.800781 L 0.0625 8.800781 Z M 0.0625 0.0234375 " fill-opacity="1" fill-rule="nonzero"/></g></g></g></g></g></g></g></g></g><g mask="url(#279bfe3528)"><g transform="matrix(1, 0, 0, 1, 28, 59)"><g clip-path="url(#03b5f536bb)"><g clip-path="url(#fc3d7e317a)"><g clip-path="url(#78d08f19a8)"><g transform="matrix(1, 0, 0, 1, 0, 0.000000000000007105)"><g clip-path="url(#fdf3a0c071)"><g clip-path="url(#8eed5b439b)"><g clip-path="url(#2c62bb3514)"><path fill="#e5e5ff" d="M 0.425781 0.894531 L 26.300781 0.894531 L 26.300781 7.121094 L 0.425781 7.121094 Z M 0.425781 0.894531 " fill-opacity="1" fill-rule="nonzero"/></g></g></g></g></g></g></g></g></g><g mask="url(#466740f23e)"><g transform="matrix(1, 0, 0, 1, 28, 68)"><g clip-path="url(#33bcd6edab)"><g clip-path="url(#3a989ba41b)"><g clip-path="url(#291f2b21b8)"><g><g clip-path="url(#fd628ff19d)"><g clip-path="url(#cd21412559)"><g clip-path="url(#4c275063e3)"><path fill="#e5e5ff" d="M 0.425781 0.59375 L 22.894531 0.59375 L 22.894531 6.820312 L 0.425781 6.820312 Z M 0.425781 0.59375 " fill-opacity="1" fill-rule="nonzero"/></g></g></g></g></g></g></g></g></g></svg>