<svg xmlns="http://www.w3.org/2000/svg" xmlns:xlink="http://www.w3.org/1999/xlink" width="84" zoomAndPan="magnify" viewBox="0 0 63 80.999996" height="108" preserveAspectRatio="xMidYMid meet" version="1.0"><defs><filter x="0%" y="0%" width="100%" height="100%" id="692bff99c3"><feColorMatrix values="0 0 0 0 1 0 0 0 0 1 0 0 0 0 1 0 0 0 1 0" color-interpolation-filters="sRGB"/></filter><clipPath id="bd075bbe10"><path d="M 1.273438 2.699219 L 61.738281 2.699219 L 61.738281 21.601562 L 1.273438 21.601562 Z M 1.273438 2.699219 " clip-rule="nonzero"/></clipPath><clipPath id="86494ba100"><path d="M 4.273438 2.699219 L 58.726562 2.699219 C 60.382812 2.699219 61.726562 4.042969 61.726562 5.699219 L 61.726562 18.601562 C 61.726562 20.257812 60.382812 21.601562 58.726562 21.601562 L 4.273438 21.601562 C 2.617188 21.601562 1.273438 20.257812 1.273438 18.601562 L 1.273438 5.699219 C 1.273438 4.042969 2.617188 2.699219 4.273438 2.699219 Z M 4.273438 2.699219 " clip-rule="nonzero"/></clipPath><clipPath id="43ca95b67d"><path d="M 0.273438 0.699219 L 60.738281 0.699219 L 60.738281 19.601562 L 0.273438 19.601562 Z M 0.273438 0.699219 " clip-rule="nonzero"/></clipPath><clipPath id="af03de2ed0"><path d="M 3.273438 0.699219 L 57.726562 0.699219 C 59.382812 0.699219 60.726562 2.042969 60.726562 3.699219 L 60.726562 16.601562 C 60.726562 18.257812 59.382812 19.601562 57.726562 19.601562 L 3.273438 19.601562 C 1.617188 19.601562 0.273438 18.257812 0.273438 16.601562 L 0.273438 3.699219 C 0.273438 2.042969 1.617188 0.699219 3.273438 0.699219 Z M 3.273438 0.699219 " clip-rule="nonzero"/></clipPath><clipPath id="84e71682bc"><rect x="0" width="61" y="0" height="20"/></clipPath><clipPath id="c0eee1903e"><path d="M 1.273438 24.75 L 61.738281 24.75 L 61.738281 43.648438 L 1.273438 43.648438 Z M 1.273438 24.75 " clip-rule="nonzero"/></clipPath><clipPath id="e9bdc0fd63"><path d="M 4.273438 24.75 L 58.726562 24.75 C 60.382812 24.75 61.726562 26.09375 61.726562 27.75 L 61.726562 40.648438 C 61.726562 42.308594 60.382812 43.648438 58.726562 43.648438 L 4.273438 43.648438 C 2.617188 43.648438 1.273438 42.308594 1.273438 40.648438 L 1.273438 27.75 C 1.273438 26.09375 2.617188 24.75 4.273438 24.75 Z M 4.273438 24.75 " clip-rule="nonzero"/></clipPath><clipPath id="c905b77812"><path d="M 0.273438 0.75 L 60.738281 0.75 L 60.738281 19.648438 L 0.273438 19.648438 Z M 0.273438 0.75 " clip-rule="nonzero"/></clipPath><clipPath id="5ff650f600"><path d="M 3.273438 0.75 L 57.726562 0.75 C 59.382812 0.75 60.726562 2.09375 60.726562 3.75 L 60.726562 16.648438 C 60.726562 18.308594 59.382812 19.648438 57.726562 19.648438 L 3.273438 19.648438 C 1.617188 19.648438 0.273438 18.308594 0.273438 16.648438 L 0.273438 3.75 C 0.273438 2.09375 1.617188 0.75 3.273438 0.75 Z M 3.273438 0.75 " clip-rule="nonzero"/></clipPath><clipPath id="0a9ca30c79"><rect x="0" width="61" y="0" height="20"/></clipPath><clipPath id="29f30980d1"><path d="M 1.273438 46.648438 L 61.738281 46.648438 L 61.738281 65.550781 L 1.273438 65.550781 Z M 1.273438 46.648438 " clip-rule="nonzero"/></clipPath><clipPath id="7c2d681aac"><path d="M 4.273438 46.648438 L 58.726562 46.648438 C 60.382812 46.648438 61.726562 47.992188 61.726562 49.648438 L 61.726562 62.550781 C 61.726562 64.207031 60.382812 65.550781 58.726562 65.550781 L 4.273438 65.550781 C 2.617188 65.550781 1.273438 64.207031 1.273438 62.550781 L 1.273438 49.648438 C 1.273438 47.992188 2.617188 46.648438 4.273438 46.648438 Z M 4.273438 46.648438 " clip-rule="nonzero"/></clipPath><clipPath id="432db94054"><path d="M 0.273438 0.648438 L 60.738281 0.648438 L 60.738281 19.550781 L 0.273438 19.550781 Z M 0.273438 0.648438 " clip-rule="nonzero"/></clipPath><clipPath id="ddb9a29fab"><path d="M 3.273438 0.648438 L 57.726562 0.648438 C 59.382812 0.648438 60.726562 1.992188 60.726562 3.648438 L 60.726562 16.550781 C 60.726562 18.207031 59.382812 19.550781 57.726562 19.550781 L 3.273438 19.550781 C 1.617188 19.550781 0.273438 18.207031 0.273438 16.550781 L 0.273438 3.648438 C 0.273438 1.992188 1.617188 0.648438 3.273438 0.648438 Z M 3.273438 0.648438 " clip-rule="nonzero"/></clipPath><clipPath id="5a0dea500d"><rect x="0" width="61" y="0" height="20"/></clipPath><clipPath id="d0bfef7456"><path d="M 1.273438 68.550781 L 61.738281 68.550781 L 61.738281 81 L 1.273438 81 Z M 1.273438 68.550781 " clip-rule="nonzero"/></clipPath><clipPath id="71b84838e4"><path d="M 4.273438 68.550781 L 58.726562 68.550781 C 60.382812 68.550781 61.726562 69.894531 61.726562 71.550781 L 61.726562 84.449219 C 61.726562 86.105469 60.382812 87.449219 58.726562 87.449219 L 4.273438 87.449219 C 2.617188 87.449219 1.273438 86.105469 1.273438 84.449219 L 1.273438 71.550781 C 1.273438 69.894531 2.617188 68.550781 4.273438 68.550781 Z M 4.273438 68.550781 " clip-rule="nonzero"/></clipPath><clipPath id="29fc4b3db8"><path d="M 0.273438 0.550781 L 60.738281 0.550781 L 60.738281 13 L 0.273438 13 Z M 0.273438 0.550781 " clip-rule="nonzero"/></clipPath><clipPath id="9cc46ca8df"><path d="M 3.273438 0.550781 L 57.726562 0.550781 C 59.382812 0.550781 60.726562 1.894531 60.726562 3.550781 L 60.726562 16.449219 C 60.726562 18.105469 59.382812 19.449219 57.726562 19.449219 L 3.273438 19.449219 C 1.617188 19.449219 0.273438 18.105469 0.273438 16.449219 L 0.273438 3.550781 C 0.273438 1.894531 1.617188 0.550781 3.273438 0.550781 Z M 3.273438 0.550781 " clip-rule="nonzero"/></clipPath><clipPath id="059c62ecb8"><rect x="0" width="61" y="0" height="13"/></clipPath><clipPath id="5cd4085529"><path d="M 3.75 5.070312 L 20.25 5.070312 L 20.25 19.320312 L 3.75 19.320312 Z M 3.75 5.070312 " clip-rule="nonzero"/></clipPath><clipPath id="5a55dab4c6"><path d="M 3.75 27.121094 L 20.25 27.121094 L 20.25 41.371094 L 3.75 41.371094 Z M 3.75 27.121094 " clip-rule="nonzero"/></clipPath><clipPath id="ea1d8c9f49"><path d="M 3.75 49.019531 L 20.25 49.019531 L 20.25 63.269531 L 3.75 63.269531 Z M 3.75 49.019531 " clip-rule="nonzero"/></clipPath><clipPath id="1886cff91b"><path d="M 3.75 70.800781 L 20.25 70.800781 L 20.25 81 L 3.75 81 Z M 3.75 70.800781 " clip-rule="nonzero"/></clipPath><mask id="115ac6be1a"><g filter="url(#692bff99c3)"><rect x="-6.3" width="75.6" fill="#000000" y="-8.1" height="97.199995" fill-opacity="0.7"/></g></mask><clipPath id="7772899f38"><path d="M 1 0.488281 L 36.800781 0.488281 L 36.800781 5.738281 L 1 5.738281 Z M 1 0.488281 " clip-rule="nonzero"/></clipPath><clipPath id="3eab8506a3"><path d="M 0.800781 0.488281 L 36.800781 0.488281 L 36.800781 5.738281 L 0.800781 5.738281 Z M 0.800781 0.488281 " clip-rule="nonzero"/></clipPath><clipPath id="869aaaa55a"><rect x="0" width="38" y="0" height="6"/></clipPath><mask id="523a43d16b"><g filter="url(#692bff99c3)"><rect x="-6.3" width="75.6" fill="#000000" y="-8.1" height="97.199995" fill-opacity="0.7"/></g></mask><clipPath id="f2c050385b"><path d="M 1 0.539062 L 36.800781 0.539062 L 36.800781 5.789062 L 1 5.789062 Z M 1 0.539062 " clip-rule="nonzero"/></clipPath><clipPath id="f2f20a1a1e"><path d="M 0.800781 0.539062 L 36.800781 0.539062 L 36.800781 5.789062 L 0.800781 5.789062 Z M 0.800781 0.539062 " clip-rule="nonzero"/></clipPath><clipPath id="feb4b2fb0a"><rect x="0" width="38" y="0" height="6"/></clipPath><mask id="a1ea1b39ed"><g filter="url(#692bff99c3)"><rect x="-6.3" width="75.6" fill="#000000" y="-8.1" height="97.199995" fill-opacity="0.7"/></g></mask><clipPath id="ca1ba123a0"><path d="M 1 0.4375 L 36.800781 0.4375 L 36.800781 5.6875 L 1 5.6875 Z M 1 0.4375 " clip-rule="nonzero"/></clipPath><clipPath id="e64034f503"><path d="M 0.800781 0.4375 L 36.800781 0.4375 L 36.800781 5.6875 L 0.800781 5.6875 Z M 0.800781 0.4375 " clip-rule="nonzero"/></clipPath><clipPath id="4972dc75e9"><rect x="0" width="38" y="0" height="6"/></clipPath><mask id="5213947c1c"><g filter="url(#692bff99c3)"><rect x="-6.3" width="75.6" fill="#000000" y="-8.1" height="97.199995" fill-opacity="0.7"/></g></mask><clipPath id="dd141f5e44"><path d="M 1 0.214844 L 36.800781 0.214844 L 36.800781 5.464844 L 1 5.464844 Z M 1 0.214844 " clip-rule="nonzero"/></clipPath><clipPath id="8571a75502"><path d="M 0.800781 0.214844 L 36.800781 0.214844 L 36.800781 5.464844 L 0.800781 5.464844 Z M 0.800781 0.214844 " clip-rule="nonzero"/></clipPath><clipPath id="4aaae160cc"><rect x="0" width="38" y="0" height="6"/></clipPath></defs><rect x="-6.3" width="75.6" fill="#ffffff" y="-8.1" height="97.199995" fill-opacity="1"/><rect x="-6.3" width="75.6" fill="#ffffff" y="-8.1" height="97.199995" fill-opacity="1"/><g clip-path="url(#bd075bbe10)"><g clip-path="url(#86494ba100)"><g transform="matrix(1, 0, 0, 1, 1, 2)"><g clip-path="url(#84e71682bc)"><g clip-path="url(#43ca95b67d)"><g clip-path="url(#af03de2ed0)"><path fill="#745eaf" d="M 0.273438 0.699219 L 60.738281 0.699219 L 60.738281 19.601562 L 0.273438 19.601562 Z M 0.273438 0.699219 " fill-opacity="1" fill-rule="nonzero"/></g></g></g></g></g></g><g clip-path="url(#c0eee1903e)"><g clip-path="url(#e9bdc0fd63)"><g transform="matrix(1, 0, 0, 1, 1, 24)"><g clip-path="url(#0a9ca30c79)"><g clip-path="url(#c905b77812)"><g clip-path="url(#5ff650f600)"><path fill="#745eaf" d="M 0.273438 0.75 L 60.738281 0.75 L 60.738281 19.648438 L 0.273438 19.648438 Z M 0.273438 0.75 " fill-opacity="1" fill-rule="nonzero"/></g></g></g></g></g></g><g clip-path="url(#29f30980d1)"><g clip-path="url(#7c2d681aac)"><g transform="matrix(1, 0, 0, 1, 1, 46)"><g clip-path="url(#5a0dea500d)"><g clip-path="url(#432db94054)"><g clip-path="url(#ddb9a29fab)"><path fill="#745eaf" d="M 0.273438 0.648438 L 60.738281 0.648438 L 60.738281 19.550781 L 0.273438 19.550781 Z M 0.273438 0.648438 " fill-opacity="1" fill-rule="nonzero"/></g></g></g></g></g></g><g clip-path="url(#d0bfef7456)"><g clip-path="url(#71b84838e4)"><g transform="matrix(1, 0, 0, 1, 1, 68)"><g clip-path="url(#059c62ecb8)"><g clip-path="url(#29fc4b3db8)"><g clip-path="url(#9cc46ca8df)"><path fill="#745eaf" d="M 0.273438 0.550781 L 60.738281 0.550781 L 60.738281 19.449219 L 0.273438 19.449219 Z M 0.273438 0.550781 " fill-opacity="1" fill-rule="nonzero"/></g></g></g></g></g></g><g clip-path="url(#5cd4085529)"><path fill="#ffffff" d="M 18.164062 5.0625 L 6.082031 5.0625 C 4.796875 5.0625 3.753906 6.109375 3.753906 7.394531 L 3.753906 16.886719 C 3.753906 18.171875 4.796875 19.214844 6.082031 19.214844 L 18.164062 19.214844 C 19.449219 19.214844 20.492188 18.171875 20.492188 16.886719 L 20.492188 7.394531 C 20.492188 6.109375 19.449219 5.0625 18.164062 5.0625 Z M 19.285156 16.246094 L 17.003906 13.828125 C 16.355469 13.136719 15.289062 13.136719 14.636719 13.828125 L 12.816406 15.757812 L 10.269531 12.980469 C 9.628906 12.28125 8.578125 12.28125 7.9375 12.980469 L 4.960938 16.226562 L 4.960938 7.394531 C 4.960938 6.773438 5.464844 6.269531 6.082031 6.269531 L 18.164062 6.269531 C 18.78125 6.269531 19.285156 6.773438 19.285156 7.394531 Z M 19.285156 16.246094 " fill-opacity="1" fill-rule="nonzero"/></g><path fill="#ffffff" d="M 17.433594 9.570312 C 17.433594 9.800781 17.390625 10.019531 17.300781 10.230469 C 17.214844 10.441406 17.089844 10.628906 16.929688 10.792969 C 16.765625 10.953125 16.578125 11.078125 16.367188 11.164062 C 16.15625 11.253906 15.9375 11.296875 15.707031 11.296875 C 15.476562 11.296875 15.257812 11.253906 15.046875 11.164062 C 14.835938 11.078125 14.648438 10.953125 14.488281 10.792969 C 14.324219 10.628906 14.199219 10.441406 14.113281 10.230469 C 14.023438 10.019531 13.980469 9.800781 13.980469 9.570312 C 13.980469 9.34375 14.023438 9.121094 14.113281 8.910156 C 14.199219 8.699219 14.324219 8.511719 14.488281 8.351562 C 14.648438 8.1875 14.835938 8.0625 15.046875 7.976562 C 15.257812 7.886719 15.476562 7.84375 15.707031 7.84375 C 15.9375 7.84375 16.15625 7.886719 16.367188 7.976562 C 16.578125 8.0625 16.765625 8.1875 16.929688 8.351562 C 17.089844 8.511719 17.214844 8.699219 17.300781 8.910156 C 17.390625 9.121094 17.433594 9.34375 17.433594 9.570312 Z M 17.433594 9.570312 " fill-opacity="1" fill-rule="nonzero"/><g clip-path="url(#5a55dab4c6)"><path fill="#ffffff" d="M 18.164062 27.113281 L 6.082031 27.113281 C 4.796875 27.113281 3.753906 28.160156 3.753906 29.441406 L 3.753906 38.9375 C 3.753906 40.21875 4.796875 41.265625 6.082031 41.265625 L 18.164062 41.265625 C 19.449219 41.265625 20.492188 40.21875 20.492188 38.9375 L 20.492188 29.441406 C 20.492188 28.160156 19.449219 27.113281 18.164062 27.113281 Z M 19.285156 38.296875 L 17.003906 35.875 C 16.355469 35.1875 15.289062 35.1875 14.636719 35.875 L 12.816406 37.808594 L 10.269531 35.03125 C 9.628906 34.332031 8.578125 34.332031 7.9375 35.03125 L 4.960938 38.277344 L 4.960938 29.441406 C 4.960938 28.824219 5.464844 28.320312 6.082031 28.320312 L 18.164062 28.320312 C 18.78125 28.320312 19.285156 28.824219 19.285156 29.441406 Z M 19.285156 38.296875 " fill-opacity="1" fill-rule="nonzero"/></g><path fill="#ffffff" d="M 17.433594 31.621094 C 17.433594 31.847656 17.390625 32.070312 17.300781 32.28125 C 17.214844 32.492188 17.089844 32.679688 16.929688 32.839844 C 16.765625 33.003906 16.578125 33.128906 16.367188 33.214844 C 16.15625 33.304688 15.9375 33.347656 15.707031 33.347656 C 15.476562 33.347656 15.257812 33.304688 15.046875 33.214844 C 14.835938 33.128906 14.648438 33.003906 14.488281 32.839844 C 14.324219 32.679688 14.199219 32.492188 14.113281 32.28125 C 14.023438 32.070312 13.980469 31.847656 13.980469 31.621094 C 13.980469 31.390625 14.023438 31.171875 14.113281 30.960938 C 14.199219 30.75 14.324219 30.5625 14.488281 30.398438 C 14.648438 30.238281 14.835938 30.113281 15.046875 30.027344 C 15.257812 29.9375 15.476562 29.894531 15.707031 29.894531 C 15.9375 29.894531 16.15625 29.9375 16.367188 30.027344 C 16.578125 30.113281 16.765625 30.238281 16.929688 30.398438 C 17.089844 30.5625 17.214844 30.75 17.300781 30.960938 C 17.390625 31.171875 17.433594 31.390625 17.433594 31.621094 Z M 17.433594 31.621094 " fill-opacity="1" fill-rule="nonzero"/><g clip-path="url(#ea1d8c9f49)"><path fill="#ffffff" d="M 18.164062 49.011719 L 6.082031 49.011719 C 4.796875 49.011719 3.753906 50.058594 3.753906 51.34375 L 3.753906 60.835938 C 3.753906 62.121094 4.796875 63.164062 6.082031 63.164062 L 18.164062 63.164062 C 19.449219 63.164062 20.492188 62.121094 20.492188 60.835938 L 20.492188 51.34375 C 20.492188 50.058594 19.449219 49.011719 18.164062 49.011719 Z M 19.285156 60.195312 L 17.003906 57.777344 C 16.355469 57.085938 15.289062 57.085938 14.636719 57.777344 L 12.816406 59.707031 L 10.269531 56.929688 C 9.628906 56.230469 8.578125 56.230469 7.9375 56.929688 L 4.960938 60.175781 L 4.960938 51.34375 C 4.960938 50.726562 5.464844 50.222656 6.082031 50.222656 L 18.164062 50.222656 C 18.78125 50.222656 19.285156 50.726562 19.285156 51.34375 Z M 19.285156 60.195312 " fill-opacity="1" fill-rule="nonzero"/></g><path fill="#ffffff" d="M 17.433594 53.519531 C 17.433594 53.75 17.390625 53.96875 17.300781 54.179688 C 17.214844 54.394531 17.089844 54.578125 16.929688 54.742188 C 16.765625 54.902344 16.578125 55.027344 16.367188 55.117188 C 16.15625 55.203125 15.9375 55.246094 15.707031 55.246094 C 15.476562 55.246094 15.257812 55.203125 15.046875 55.117188 C 14.835938 55.027344 14.648438 54.902344 14.488281 54.742188 C 14.324219 54.578125 14.199219 54.394531 14.113281 54.179688 C 14.023438 53.96875 13.980469 53.75 13.980469 53.519531 C 13.980469 53.292969 14.023438 53.070312 14.113281 52.859375 C 14.199219 52.648438 14.324219 52.460938 14.488281 52.300781 C 14.648438 52.136719 14.835938 52.011719 15.046875 51.925781 C 15.257812 51.839844 15.476562 51.792969 15.707031 51.792969 C 15.9375 51.792969 16.15625 51.839844 16.367188 51.925781 C 16.578125 52.011719 16.765625 52.136719 16.929688 52.300781 C 17.089844 52.460938 17.214844 52.648438 17.300781 52.859375 C 17.390625 53.070312 17.433594 53.292969 17.433594 53.519531 Z M 17.433594 53.519531 " fill-opacity="1" fill-rule="nonzero"/><g clip-path="url(#1886cff91b)"><path fill="#ffffff" d="M 18.164062 70.792969 L 6.082031 70.792969 C 4.796875 70.792969 3.753906 71.835938 3.753906 73.121094 L 3.753906 82.617188 C 3.753906 83.898438 4.796875 84.945312 6.082031 84.945312 L 18.164062 84.945312 C 19.449219 84.945312 20.492188 83.898438 20.492188 82.617188 L 20.492188 73.121094 C 20.492188 71.835938 19.449219 70.792969 18.164062 70.792969 Z M 19.285156 81.972656 L 17.003906 79.554688 C 16.355469 78.863281 15.289062 78.863281 14.636719 79.554688 L 12.816406 81.488281 L 10.269531 78.710938 C 9.628906 78.011719 8.578125 78.011719 7.9375 78.710938 L 4.960938 81.957031 L 4.960938 73.121094 C 4.960938 72.503906 5.464844 72 6.082031 72 L 18.164062 72 C 18.78125 72 19.285156 72.503906 19.285156 73.121094 Z M 19.285156 81.972656 " fill-opacity="1" fill-rule="nonzero"/></g><path fill="#ffffff" d="M 17.433594 75.300781 C 17.433594 75.527344 17.390625 75.75 17.300781 75.960938 C 17.214844 76.171875 17.089844 76.359375 16.929688 76.519531 C 16.765625 76.683594 16.578125 76.808594 16.367188 76.894531 C 16.15625 76.980469 15.9375 77.027344 15.707031 77.027344 C 15.476562 77.027344 15.257812 76.980469 15.046875 76.894531 C 14.835938 76.808594 14.648438 76.683594 14.488281 76.519531 C 14.324219 76.359375 14.199219 76.171875 14.113281 75.960938 C 14.023438 75.75 13.980469 75.527344 13.980469 75.300781 C 13.980469 75.070312 14.023438 74.851562 14.113281 74.640625 C 14.199219 74.429688 14.324219 74.242188 14.488281 74.078125 C 14.648438 73.917969 14.835938 73.792969 15.046875 73.707031 C 15.257812 73.617188 15.476562 73.574219 15.707031 73.574219 C 15.9375 73.574219 16.15625 73.617188 16.367188 73.707031 C 16.578125 73.792969 16.765625 73.917969 16.929688 74.078125 C 17.089844 74.242188 17.214844 74.429688 17.300781 74.640625 C 17.390625 74.851562 17.433594 75.070312 17.433594 75.300781 Z M 17.433594 75.300781 " fill-opacity="1" fill-rule="nonzero"/><g mask="url(#115ac6be1a)"><g transform="matrix(1, 0, 0, 1, 22, 9)"><g clip-path="url(#869aaaa55a)"><g clip-path="url(#7772899f38)"><path fill="#e5e5ff" d="M 34.222656 5.535156 L 3.46875 5.535156 C 2.148438 5.535156 1.082031 4.464844 1.082031 3.148438 C 1.082031 1.828125 2.148438 0.757812 3.46875 0.757812 L 34.222656 0.757812 C 35.542969 0.757812 36.613281 1.828125 36.613281 3.148438 C 36.613281 4.464844 35.542969 5.535156 34.222656 5.535156 Z M 34.222656 5.535156 " fill-opacity="1" fill-rule="nonzero"/></g><g clip-path="url(#3eab8506a3)"><path fill="#e5e5ff" d="M 34.222656 5.808594 L 3.46875 5.808594 C 2.003906 5.808594 0.808594 4.613281 0.808594 3.148438 C 0.808594 1.679688 2.003906 0.488281 3.46875 0.488281 L 34.222656 0.488281 C 35.691406 0.488281 36.882812 1.679688 36.882812 3.148438 C 36.882812 4.613281 35.691406 5.808594 34.222656 5.808594 Z M 3.46875 1.03125 C 2.300781 1.03125 1.351562 1.980469 1.351562 3.148438 C 1.351562 4.316406 2.300781 5.265625 3.46875 5.265625 L 34.222656 5.265625 C 35.390625 5.265625 36.339844 4.316406 36.339844 3.148438 C 36.339844 1.980469 35.390625 1.03125 34.222656 1.03125 Z M 3.46875 1.03125 " fill-opacity="1" fill-rule="nonzero"/></g></g></g></g><g mask="url(#523a43d16b)"><g transform="matrix(1, 0, 0, 1, 22, 31)"><g clip-path="url(#feb4b2fb0a)"><g clip-path="url(#f2c050385b)"><path fill="#e5e5ff" d="M 34.222656 5.585938 L 3.46875 5.585938 C 2.148438 5.585938 1.082031 4.515625 1.082031 3.199219 C 1.082031 1.878906 2.148438 0.808594 3.46875 0.808594 L 34.222656 0.808594 C 35.542969 0.808594 36.613281 1.878906 36.613281 3.199219 C 36.613281 4.515625 35.542969 5.585938 34.222656 5.585938 Z M 34.222656 5.585938 " fill-opacity="1" fill-rule="nonzero"/></g><g clip-path="url(#f2f20a1a1e)"><path fill="#e5e5ff" d="M 34.222656 5.859375 L 3.46875 5.859375 C 2.003906 5.859375 0.808594 4.664062 0.808594 3.199219 C 0.808594 1.730469 2.003906 0.539062 3.46875 0.539062 L 34.222656 0.539062 C 35.691406 0.539062 36.882812 1.730469 36.882812 3.199219 C 36.882812 4.664062 35.691406 5.859375 34.222656 5.859375 Z M 3.46875 1.082031 C 2.300781 1.082031 1.351562 2.03125 1.351562 3.199219 C 1.351562 4.363281 2.300781 5.316406 3.46875 5.316406 L 34.222656 5.316406 C 35.390625 5.316406 36.339844 4.363281 36.339844 3.199219 C 36.339844 2.03125 35.390625 1.082031 34.222656 1.082031 Z M 3.46875 1.082031 " fill-opacity="1" fill-rule="nonzero"/></g></g></g></g><g mask="url(#a1ea1b39ed)"><g transform="matrix(1, 0, 0, 1, 22, 53)"><g clip-path="url(#4972dc75e9)"><g clip-path="url(#ca1ba123a0)"><path fill="#e5e5ff" d="M 34.222656 5.484375 L 3.46875 5.484375 C 2.148438 5.484375 1.082031 4.417969 1.082031 3.097656 C 1.082031 1.777344 2.148438 0.707031 3.46875 0.707031 L 34.222656 0.707031 C 35.542969 0.707031 36.613281 1.777344 36.613281 3.097656 C 36.613281 4.417969 35.542969 5.484375 34.222656 5.484375 Z M 34.222656 5.484375 " fill-opacity="1" fill-rule="nonzero"/></g><g clip-path="url(#e64034f503)"><path fill="#e5e5ff" d="M 34.222656 5.757812 L 3.46875 5.757812 C 2.003906 5.757812 0.808594 4.5625 0.808594 3.097656 C 0.808594 1.628906 2.003906 0.4375 3.46875 0.4375 L 34.222656 0.4375 C 35.691406 0.4375 36.882812 1.628906 36.882812 3.097656 C 36.882812 4.5625 35.691406 5.757812 34.222656 5.757812 Z M 3.46875 0.980469 C 2.300781 0.980469 1.351562 1.929688 1.351562 3.097656 C 1.351562 4.265625 2.300781 5.214844 3.46875 5.214844 L 34.222656 5.214844 C 35.390625 5.214844 36.339844 4.265625 36.339844 3.097656 C 36.339844 1.929688 35.390625 0.980469 34.222656 0.980469 Z M 3.46875 0.980469 " fill-opacity="1" fill-rule="nonzero"/></g></g></g></g><g mask="url(#5213947c1c)"><g transform="matrix(1, 0, 0, 1, 22, 75)"><g clip-path="url(#4aaae160cc)"><g clip-path="url(#dd141f5e44)"><path fill="#e5e5ff" d="M 34.222656 5.265625 L 3.46875 5.265625 C 2.148438 5.265625 1.082031 4.195312 1.082031 2.875 C 1.082031 1.558594 2.148438 0.488281 3.46875 0.488281 L 34.222656 0.488281 C 35.542969 0.488281 36.613281 1.558594 36.613281 2.875 C 36.613281 4.195312 35.542969 5.265625 34.222656 5.265625 Z M 34.222656 5.265625 " fill-opacity="1" fill-rule="nonzero"/></g><g clip-path="url(#8571a75502)"><path fill="#e5e5ff" d="M 34.222656 5.535156 L 3.46875 5.535156 C 2.003906 5.535156 0.808594 4.34375 0.808594 2.875 C 0.808594 1.410156 2.003906 0.214844 3.46875 0.214844 L 34.222656 0.214844 C 35.691406 0.214844 36.882812 1.410156 36.882812 2.875 C 36.882812 4.34375 35.691406 5.535156 34.222656 5.535156 Z M 3.46875 0.757812 C 2.300781 0.757812 1.351562 1.710938 1.351562 2.875 C 1.351562 4.042969 2.300781 4.996094 3.46875 4.996094 L 34.222656 4.996094 C 35.390625 4.996094 36.339844 4.042969 36.339844 2.875 C 36.339844 1.710938 35.390625 0.757812 34.222656 0.757812 Z M 3.46875 0.757812 " fill-opacity="1" fill-rule="nonzero"/></g></g></g></g></svg>