<svg xmlns="http://www.w3.org/2000/svg" xmlns:xlink="http://www.w3.org/1999/xlink" width="84" zoomAndPan="magnify" viewBox="0 0 63 80.999996" height="108" preserveAspectRatio="xMidYMid meet" version="1.0"><defs><clipPath id="d0555ae272"><path d="M 0.519531 0.300781 L 25.496094 0.300781 L 25.496094 25.273438 L 0.519531 25.273438 Z M 0.519531 0.300781 " clip-rule="nonzero"/></clipPath><clipPath id="51dddf279f"><path d="M 25.496094 3.300781 L 25.496094 22.273438 C 25.496094 23.933594 24.152344 25.273438 22.496094 25.273438 L 3.519531 25.273438 C 1.863281 25.273438 0.519531 23.933594 0.519531 22.273438 L 0.519531 3.300781 C 0.519531 1.644531 1.863281 0.300781 3.519531 0.300781 L 22.496094 0.300781 C 24.152344 0.300781 25.496094 1.644531 25.496094 3.300781 Z M 25.496094 3.300781 " clip-rule="nonzero"/></clipPath><clipPath id="73edfce929"><path d="M 0.519531 0.300781 L 25.496094 0.300781 L 25.496094 25.273438 L 0.519531 25.273438 Z M 0.519531 0.300781 " clip-rule="nonzero"/></clipPath><clipPath id="7f5fb54d92"><path d="M 25.496094 3.300781 L 25.496094 22.273438 C 25.496094 23.933594 24.152344 25.273438 22.496094 25.273438 L 3.519531 25.273438 C 1.863281 25.273438 0.519531 23.933594 0.519531 22.273438 L 0.519531 3.300781 C 0.519531 1.644531 1.863281 0.300781 3.519531 0.300781 L 22.496094 0.300781 C 24.152344 0.300781 25.496094 1.644531 25.496094 3.300781 Z M 25.496094 3.300781 " clip-rule="nonzero"/></clipPath><clipPath id="13f142d2e8"><rect x="0" width="26" y="0" height="26"/></clipPath><clipPath id="24242d1e35"><path d="M 27.503906 0.300781 L 52.480469 0.300781 L 52.480469 25.273438 L 27.503906 25.273438 Z M 27.503906 0.300781 " clip-rule="nonzero"/></clipPath><clipPath id="7b7655caa6"><path d="M 52.480469 3.300781 L 52.480469 22.273438 C 52.480469 23.933594 51.136719 25.273438 49.480469 25.273438 L 30.503906 25.273438 C 28.847656 25.273438 27.503906 23.933594 27.503906 22.273438 L 27.503906 3.300781 C 27.503906 1.644531 28.847656 0.300781 30.503906 0.300781 L 49.480469 0.300781 C 51.136719 0.300781 52.480469 1.644531 52.480469 3.300781 Z M 52.480469 3.300781 " clip-rule="nonzero"/></clipPath><clipPath id="d313e0b9fa"><path d="M 0.503906 0.300781 L 25.480469 0.300781 L 25.480469 25.273438 L 0.503906 25.273438 Z M 0.503906 0.300781 " clip-rule="nonzero"/></clipPath><clipPath id="3bab502961"><path d="M 25.480469 3.300781 L 25.480469 22.273438 C 25.480469 23.933594 24.136719 25.273438 22.480469 25.273438 L 3.503906 25.273438 C 1.847656 25.273438 0.503906 23.933594 0.503906 22.273438 L 0.503906 3.300781 C 0.503906 1.644531 1.847656 0.300781 3.503906 0.300781 L 22.480469 0.300781 C 24.136719 0.300781 25.480469 1.644531 25.480469 3.300781 Z M 25.480469 3.300781 " clip-rule="nonzero"/></clipPath><clipPath id="b892b1f888"><rect x="0" width="26" y="0" height="26"/></clipPath><clipPath id="e9987526a0"><path d="M 4.371094 5.488281 L 21.378906 5.488281 L 21.378906 20.179688 L 4.371094 20.179688 Z M 4.371094 5.488281 " clip-rule="nonzero"/></clipPath><clipPath id="144571b970"><path d="M 31.355469 5.488281 L 48.367188 5.488281 L 48.367188 20.179688 L 31.355469 20.179688 Z M 31.355469 5.488281 " clip-rule="nonzero"/></clipPath><clipPath id="3254612ca2"><rect x="0" width="53" y="0" height="26"/></clipPath><clipPath id="b0533fec92"><path d="M 0.519531 0.601562 L 25.496094 0.601562 L 25.496094 25.574219 L 0.519531 25.574219 Z M 0.519531 0.601562 " clip-rule="nonzero"/></clipPath><clipPath id="8569601fc8"><path d="M 25.496094 3.601562 L 25.496094 22.574219 C 25.496094 24.230469 24.152344 25.574219 22.496094 25.574219 L 3.519531 25.574219 C 1.863281 25.574219 0.519531 24.230469 0.519531 22.574219 L 0.519531 3.601562 C 0.519531 1.941406 1.863281 0.601562 3.519531 0.601562 L 22.496094 0.601562 C 24.152344 0.601562 25.496094 1.941406 25.496094 3.601562 Z M 25.496094 3.601562 " clip-rule="nonzero"/></clipPath><clipPath id="f00be2072a"><path d="M 0.519531 0.601562 L 25.496094 0.601562 L 25.496094 25.574219 L 0.519531 25.574219 Z M 0.519531 0.601562 " clip-rule="nonzero"/></clipPath><clipPath id="390fc5ccd4"><path d="M 25.496094 3.601562 L 25.496094 22.574219 C 25.496094 24.230469 24.152344 25.574219 22.496094 25.574219 L 3.519531 25.574219 C 1.863281 25.574219 0.519531 24.230469 0.519531 22.574219 L 0.519531 3.601562 C 0.519531 1.941406 1.863281 0.601562 3.519531 0.601562 L 22.496094 0.601562 C 24.152344 0.601562 25.496094 1.941406 25.496094 3.601562 Z M 25.496094 3.601562 " clip-rule="nonzero"/></clipPath><clipPath id="7717edf3f7"><rect x="0" width="26" y="0" height="26"/></clipPath><clipPath id="268903827a"><path d="M 27.503906 0.601562 L 52.480469 0.601562 L 52.480469 25.574219 L 27.503906 25.574219 Z M 27.503906 0.601562 " clip-rule="nonzero"/></clipPath><clipPath id="33cff23b9e"><path d="M 52.480469 3.601562 L 52.480469 22.574219 C 52.480469 24.230469 51.136719 25.574219 49.480469 25.574219 L 30.503906 25.574219 C 28.847656 25.574219 27.503906 24.230469 27.503906 22.574219 L 27.503906 3.601562 C 27.503906 1.941406 28.847656 0.601562 30.503906 0.601562 L 49.480469 0.601562 C 51.136719 0.601562 52.480469 1.941406 52.480469 3.601562 Z M 52.480469 3.601562 " clip-rule="nonzero"/></clipPath><clipPath id="7aa6891137"><path d="M 0.503906 0.601562 L 25.480469 0.601562 L 25.480469 25.574219 L 0.503906 25.574219 Z M 0.503906 0.601562 " clip-rule="nonzero"/></clipPath><clipPath id="e85c37a041"><path d="M 25.480469 3.601562 L 25.480469 22.574219 C 25.480469 24.230469 24.136719 25.574219 22.480469 25.574219 L 3.503906 25.574219 C 1.847656 25.574219 0.503906 24.230469 0.503906 22.574219 L 0.503906 3.601562 C 0.503906 1.941406 1.847656 0.601562 3.503906 0.601562 L 22.480469 0.601562 C 24.136719 0.601562 25.480469 1.941406 25.480469 3.601562 Z M 25.480469 3.601562 " clip-rule="nonzero"/></clipPath><clipPath id="25a65788a0"><rect x="0" width="26" y="0" height="26"/></clipPath><clipPath id="10a5f9aba8"><path d="M 4.371094 5.789062 L 21.378906 5.789062 L 21.378906 20.480469 L 4.371094 20.480469 Z M 4.371094 5.789062 " clip-rule="nonzero"/></clipPath><clipPath id="922181bf5e"><path d="M 31.355469 5.789062 L 48.367188 5.789062 L 48.367188 20.480469 L 31.355469 20.480469 Z M 31.355469 5.789062 " clip-rule="nonzero"/></clipPath><clipPath id="cbe37e42a1"><rect x="0" width="53" y="0" height="26"/></clipPath><clipPath id="020e75d246"><path d="M 0.519531 0.824219 L 25.496094 0.824219 L 25.496094 15 L 0.519531 15 Z M 0.519531 0.824219 " clip-rule="nonzero"/></clipPath><clipPath id="b343763319"><path d="M 25.496094 3.824219 L 25.496094 22.800781 C 25.496094 24.457031 24.152344 25.800781 22.496094 25.800781 L 3.519531 25.800781 C 1.863281 25.800781 0.519531 24.457031 0.519531 22.800781 L 0.519531 3.824219 C 0.519531 2.167969 1.863281 0.824219 3.519531 0.824219 L 22.496094 0.824219 C 24.152344 0.824219 25.496094 2.167969 25.496094 3.824219 Z M 25.496094 3.824219 " clip-rule="nonzero"/></clipPath><clipPath id="db46f4a5bc"><path d="M 0.519531 0.824219 L 25.496094 0.824219 L 25.496094 15 L 0.519531 15 Z M 0.519531 0.824219 " clip-rule="nonzero"/></clipPath><clipPath id="845fe3c22d"><path d="M 25.496094 3.824219 L 25.496094 22.800781 C 25.496094 24.457031 24.152344 25.800781 22.496094 25.800781 L 3.519531 25.800781 C 1.863281 25.800781 0.519531 24.457031 0.519531 22.800781 L 0.519531 3.824219 C 0.519531 2.167969 1.863281 0.824219 3.519531 0.824219 L 22.496094 0.824219 C 24.152344 0.824219 25.496094 2.167969 25.496094 3.824219 Z M 25.496094 3.824219 " clip-rule="nonzero"/></clipPath><clipPath id="3db305999a"><rect x="0" width="26" y="0" height="15"/></clipPath><clipPath id="f9505d7278"><path d="M 27.503906 0.824219 L 52.480469 0.824219 L 52.480469 15 L 27.503906 15 Z M 27.503906 0.824219 " clip-rule="nonzero"/></clipPath><clipPath id="cc78374f04"><path d="M 52.480469 3.824219 L 52.480469 22.800781 C 52.480469 24.457031 51.136719 25.800781 49.480469 25.800781 L 30.503906 25.800781 C 28.847656 25.800781 27.503906 24.457031 27.503906 22.800781 L 27.503906 3.824219 C 27.503906 2.167969 28.847656 0.824219 30.503906 0.824219 L 49.480469 0.824219 C 51.136719 0.824219 52.480469 2.167969 52.480469 3.824219 Z M 52.480469 3.824219 " clip-rule="nonzero"/></clipPath><clipPath id="d40e857ffb"><path d="M 0.503906 0.824219 L 25.480469 0.824219 L 25.480469 15 L 0.503906 15 Z M 0.503906 0.824219 " clip-rule="nonzero"/></clipPath><clipPath id="e5bd390c9e"><path d="M 25.480469 3.824219 L 25.480469 22.800781 C 25.480469 24.457031 24.136719 25.800781 22.480469 25.800781 L 3.503906 25.800781 C 1.847656 25.800781 0.503906 24.457031 0.503906 22.800781 L 0.503906 3.824219 C 0.503906 2.167969 1.847656 0.824219 3.503906 0.824219 L 22.480469 0.824219 C 24.136719 0.824219 25.480469 2.167969 25.480469 3.824219 Z M 25.480469 3.824219 " clip-rule="nonzero"/></clipPath><clipPath id="eb2b2a6b95"><rect x="0" width="26" y="0" height="15"/></clipPath><clipPath id="5569da84fc"><path d="M 4.371094 6.015625 L 21.378906 6.015625 L 21.378906 15 L 4.371094 15 Z M 4.371094 6.015625 " clip-rule="nonzero"/></clipPath><clipPath id="9bbd26720e"><path d="M 31.355469 6.015625 L 48.367188 6.015625 L 48.367188 15 L 31.355469 15 Z M 31.355469 6.015625 " clip-rule="nonzero"/></clipPath><clipPath id="0a1f17ccdd"><rect x="0" width="53" y="0" height="15"/></clipPath></defs><rect x="-6.3" width="75.6" fill="#ffffff" y="-8.1" height="97.199995" fill-opacity="1"/><rect x="-6.3" width="75.6" fill="#ffffff" y="-8.1" height="97.199995" fill-opacity="1"/><g transform="matrix(1, 0, 0, 1, 5, 6)"><g clip-path="url(#3254612ca2)"><g clip-path="url(#d0555ae272)"><g clip-path="url(#51dddf279f)"><g transform="matrix(1, 0, 0, 1, 0, 0.000000000000007994)"><g clip-path="url(#13f142d2e8)"><g clip-path="url(#73edfce929)"><g clip-path="url(#7f5fb54d92)"><path fill="#745eaf" d="M 0.519531 0.300781 L 25.496094 0.300781 L 25.496094 25.273438 L 0.519531 25.273438 Z M 0.519531 0.300781 " fill-opacity="1" fill-rule="nonzero"/></g></g></g></g></g></g><g clip-path="url(#24242d1e35)"><g clip-path="url(#7b7655caa6)"><g transform="matrix(1, 0, 0, 1, 27, 0.000000000000007994)"><g clip-path="url(#b892b1f888)"><g clip-path="url(#d313e0b9fa)"><g clip-path="url(#3bab502961)"><path fill="#745eaf" d="M 0.503906 0.300781 L 25.480469 0.300781 L 25.480469 25.273438 L 0.503906 25.273438 Z M 0.503906 0.300781 " fill-opacity="1" fill-rule="nonzero"/></g></g></g></g></g></g><g clip-path="url(#e9987526a0)"><path fill="#ffffff" d="M 19.230469 5.480469 L 6.773438 5.480469 C 5.449219 5.480469 4.371094 6.558594 4.371094 7.882812 L 4.371094 17.671875 C 4.371094 18.996094 5.449219 20.070312 6.773438 20.070312 L 19.230469 20.070312 C 20.554688 20.070312 21.632812 18.996094 21.632812 17.671875 L 21.632812 7.882812 C 21.632812 6.558594 20.554688 5.480469 19.230469 5.480469 Z M 20.386719 17.007812 L 18.035156 14.515625 C 17.363281 13.804688 16.265625 13.804688 15.59375 14.515625 L 13.714844 16.507812 L 11.089844 13.644531 C 10.429688 12.921875 9.347656 12.921875 8.6875 13.644531 L 5.617188 16.992188 L 5.617188 7.882812 C 5.617188 7.246094 6.136719 6.726562 6.773438 6.726562 L 19.230469 6.726562 C 19.867188 6.726562 20.386719 7.246094 20.386719 7.882812 Z M 20.386719 17.007812 " fill-opacity="1" fill-rule="nonzero"/></g><path fill="#ffffff" d="M 18.476562 10.128906 C 18.476562 10.363281 18.433594 10.589844 18.339844 10.808594 C 18.25 11.027344 18.121094 11.21875 17.957031 11.386719 C 17.789062 11.554688 17.597656 11.683594 17.378906 11.773438 C 17.160156 11.863281 16.933594 11.90625 16.699219 11.90625 C 16.460938 11.90625 16.234375 11.863281 16.015625 11.773438 C 15.796875 11.683594 15.605469 11.554688 15.4375 11.386719 C 15.273438 11.21875 15.144531 11.027344 15.054688 10.808594 C 14.964844 10.589844 14.917969 10.363281 14.917969 10.128906 C 14.917969 9.890625 14.964844 9.664062 15.054688 9.449219 C 15.144531 9.230469 15.273438 9.035156 15.4375 8.871094 C 15.605469 8.703125 15.796875 8.574219 16.015625 8.484375 C 16.234375 8.394531 16.460938 8.347656 16.699219 8.347656 C 16.933594 8.347656 17.160156 8.394531 17.378906 8.484375 C 17.597656 8.574219 17.789062 8.703125 17.957031 8.871094 C 18.121094 9.035156 18.25 9.230469 18.339844 9.449219 C 18.433594 9.664062 18.476562 9.890625 18.476562 10.128906 Z M 18.476562 10.128906 " fill-opacity="1" fill-rule="nonzero"/><g clip-path="url(#144571b970)"><path fill="#ffffff" d="M 46.214844 5.480469 L 33.757812 5.480469 C 32.433594 5.480469 31.359375 6.558594 31.359375 7.882812 L 31.359375 17.671875 C 31.359375 18.996094 32.433594 20.070312 33.757812 20.070312 L 46.214844 20.070312 C 47.539062 20.070312 48.617188 18.996094 48.617188 17.671875 L 48.617188 7.882812 C 48.617188 6.558594 47.539062 5.480469 46.214844 5.480469 Z M 47.371094 17.007812 L 45.019531 14.515625 C 44.351562 13.804688 43.25 13.804688 42.578125 14.515625 L 40.703125 16.507812 L 38.078125 13.644531 C 37.414062 12.921875 36.332031 12.921875 35.671875 13.644531 L 32.601562 16.992188 L 32.601562 7.882812 C 32.601562 7.246094 33.121094 6.726562 33.757812 6.726562 L 46.214844 6.726562 C 46.851562 6.726562 47.371094 7.246094 47.371094 7.882812 Z M 47.371094 17.007812 " fill-opacity="1" fill-rule="nonzero"/></g><path fill="#ffffff" d="M 45.460938 10.128906 C 45.460938 10.363281 45.417969 10.589844 45.328125 10.808594 C 45.238281 11.027344 45.109375 11.21875 44.941406 11.386719 C 44.773438 11.554688 44.582031 11.683594 44.363281 11.773438 C 44.144531 11.863281 43.917969 11.90625 43.683594 11.90625 C 43.445312 11.90625 43.21875 11.863281 43 11.773438 C 42.785156 11.683594 42.589844 11.554688 42.425781 11.386719 C 42.257812 11.21875 42.128906 11.027344 42.039062 10.808594 C 41.949219 10.589844 41.902344 10.363281 41.902344 10.128906 C 41.902344 9.890625 41.949219 9.664062 42.039062 9.449219 C 42.128906 9.230469 42.257812 9.035156 42.425781 8.871094 C 42.589844 8.703125 42.785156 8.574219 43 8.484375 C 43.21875 8.394531 43.445312 8.347656 43.683594 8.347656 C 43.917969 8.347656 44.144531 8.394531 44.363281 8.484375 C 44.582031 8.574219 44.773438 8.703125 44.941406 8.871094 C 45.109375 9.035156 45.238281 9.230469 45.328125 9.449219 C 45.417969 9.664062 45.460938 9.890625 45.460938 10.128906 Z M 45.460938 10.128906 " fill-opacity="1" fill-rule="nonzero"/></g></g><g transform="matrix(1, 0, 0, 1, 5, 36)"><g clip-path="url(#cbe37e42a1)"><g clip-path="url(#b0533fec92)"><g clip-path="url(#8569601fc8)"><g transform="matrix(1, 0, 0, 1, 0, 0.000000000000007105)"><g clip-path="url(#7717edf3f7)"><g clip-path="url(#f00be2072a)"><g clip-path="url(#390fc5ccd4)"><path fill="#745eaf" d="M 0.519531 0.601562 L 25.496094 0.601562 L 25.496094 25.574219 L 0.519531 25.574219 Z M 0.519531 0.601562 " fill-opacity="1" fill-rule="nonzero"/></g></g></g></g></g></g><g clip-path="url(#268903827a)"><g clip-path="url(#33cff23b9e)"><g transform="matrix(1, 0, 0, 1, 27, 0.000000000000007105)"><g clip-path="url(#25a65788a0)"><g clip-path="url(#7aa6891137)"><g clip-path="url(#e85c37a041)"><path fill="#745eaf" d="M 0.503906 0.601562 L 25.480469 0.601562 L 25.480469 25.574219 L 0.503906 25.574219 Z M 0.503906 0.601562 " fill-opacity="1" fill-rule="nonzero"/></g></g></g></g></g></g><g clip-path="url(#10a5f9aba8)"><path fill="#ffffff" d="M 19.230469 5.78125 L 6.773438 5.78125 C 5.449219 5.78125 4.371094 6.859375 4.371094 8.183594 L 4.371094 17.96875 C 4.371094 19.292969 5.449219 20.371094 6.773438 20.371094 L 19.230469 20.371094 C 20.554688 20.371094 21.632812 19.292969 21.632812 17.96875 L 21.632812 8.183594 C 21.632812 6.859375 20.554688 5.78125 19.230469 5.78125 Z M 20.386719 17.308594 L 18.035156 14.816406 C 17.363281 14.105469 16.265625 14.105469 15.59375 14.816406 L 13.714844 16.808594 L 11.089844 13.945312 C 10.429688 13.222656 9.347656 13.222656 8.6875 13.945312 L 5.617188 17.289062 L 5.617188 8.183594 C 5.617188 7.546875 6.136719 7.027344 6.773438 7.027344 L 19.230469 7.027344 C 19.867188 7.027344 20.386719 7.546875 20.386719 8.183594 Z M 20.386719 17.308594 " fill-opacity="1" fill-rule="nonzero"/></g><path fill="#ffffff" d="M 18.476562 10.429688 C 18.476562 10.664062 18.433594 10.890625 18.339844 11.109375 C 18.25 11.328125 18.121094 11.519531 17.957031 11.6875 C 17.789062 11.855469 17.597656 11.980469 17.378906 12.074219 C 17.160156 12.164062 16.933594 12.207031 16.699219 12.207031 C 16.460938 12.207031 16.234375 12.164062 16.015625 12.074219 C 15.796875 11.980469 15.605469 11.855469 15.4375 11.6875 C 15.273438 11.519531 15.144531 11.328125 15.054688 11.109375 C 14.964844 10.890625 14.917969 10.664062 14.917969 10.429688 C 14.917969 10.191406 14.964844 9.964844 15.054688 9.746094 C 15.144531 9.53125 15.273438 9.335938 15.4375 9.171875 C 15.605469 9.003906 15.796875 8.875 16.015625 8.785156 C 16.234375 8.695312 16.460938 8.648438 16.699219 8.648438 C 16.933594 8.648438 17.160156 8.695312 17.378906 8.785156 C 17.597656 8.875 17.789062 9.003906 17.957031 9.171875 C 18.121094 9.335938 18.25 9.53125 18.339844 9.746094 C 18.433594 9.964844 18.476562 10.191406 18.476562 10.429688 Z M 18.476562 10.429688 " fill-opacity="1" fill-rule="nonzero"/><g clip-path="url(#922181bf5e)"><path fill="#ffffff" d="M 46.214844 5.78125 L 33.757812 5.78125 C 32.433594 5.78125 31.359375 6.859375 31.359375 8.183594 L 31.359375 17.96875 C 31.359375 19.292969 32.433594 20.371094 33.757812 20.371094 L 46.214844 20.371094 C 47.539062 20.371094 48.617188 19.292969 48.617188 17.96875 L 48.617188 8.183594 C 48.617188 6.859375 47.539062 5.78125 46.214844 5.78125 Z M 47.371094 17.308594 L 45.019531 14.816406 C 44.351562 14.105469 43.25 14.105469 42.578125 14.816406 L 40.703125 16.808594 L 38.078125 13.945312 C 37.414062 13.222656 36.332031 13.222656 35.671875 13.945312 L 32.601562 17.289062 L 32.601562 8.183594 C 32.601562 7.546875 33.121094 7.027344 33.757812 7.027344 L 46.214844 7.027344 C 46.851562 7.027344 47.371094 7.546875 47.371094 8.183594 Z M 47.371094 17.308594 " fill-opacity="1" fill-rule="nonzero"/></g><path fill="#ffffff" d="M 45.460938 10.429688 C 45.460938 10.664062 45.417969 10.890625 45.328125 11.109375 C 45.238281 11.328125 45.109375 11.519531 44.941406 11.6875 C 44.773438 11.855469 44.582031 11.980469 44.363281 12.074219 C 44.144531 12.164062 43.917969 12.207031 43.683594 12.207031 C 43.445312 12.207031 43.21875 12.164062 43 12.074219 C 42.785156 11.980469 42.589844 11.855469 42.425781 11.6875 C 42.257812 11.519531 42.128906 11.328125 42.039062 11.109375 C 41.949219 10.890625 41.902344 10.664062 41.902344 10.429688 C 41.902344 10.191406 41.949219 9.964844 42.039062 9.746094 C 42.128906 9.53125 42.257812 9.335938 42.425781 9.171875 C 42.589844 9.003906 42.785156 8.875 43 8.785156 C 43.21875 8.695312 43.445312 8.648438 43.683594 8.648438 C 43.917969 8.648438 44.144531 8.695312 44.363281 8.785156 C 44.582031 8.875 44.773438 9.003906 44.941406 9.171875 C 45.109375 9.335938 45.238281 9.53125 45.328125 9.746094 C 45.417969 9.964844 45.460938 10.191406 45.460938 10.429688 Z M 45.460938 10.429688 " fill-opacity="1" fill-rule="nonzero"/></g></g><g transform="matrix(1, 0, 0, 1, 5, 66)"><g clip-path="url(#0a1f17ccdd)"><g clip-path="url(#020e75d246)"><g clip-path="url(#b343763319)"><g><g clip-path="url(#3db305999a)"><g clip-path="url(#db46f4a5bc)"><g clip-path="url(#845fe3c22d)"><path fill="#745eaf" d="M 0.519531 0.824219 L 25.496094 0.824219 L 25.496094 25.800781 L 0.519531 25.800781 Z M 0.519531 0.824219 " fill-opacity="1" fill-rule="nonzero"/></g></g></g></g></g></g><g clip-path="url(#f9505d7278)"><g clip-path="url(#cc78374f04)"><g transform="matrix(1, 0, 0, 1, 27, 0)"><g clip-path="url(#eb2b2a6b95)"><g clip-path="url(#d40e857ffb)"><g clip-path="url(#e5bd390c9e)"><path fill="#745eaf" d="M 0.503906 0.824219 L 25.480469 0.824219 L 25.480469 25.800781 L 0.503906 25.800781 Z M 0.503906 0.824219 " fill-opacity="1" fill-rule="nonzero"/></g></g></g></g></g></g><g clip-path="url(#5569da84fc)"><path fill="#ffffff" d="M 19.230469 6.007812 L 6.773438 6.007812 C 5.449219 6.007812 4.371094 7.082031 4.371094 8.410156 L 4.371094 18.195312 C 4.371094 19.519531 5.449219 20.597656 6.773438 20.597656 L 19.230469 20.597656 C 20.554688 20.597656 21.632812 19.519531 21.632812 18.195312 L 21.632812 8.410156 C 21.632812 7.082031 20.554688 6.007812 19.230469 6.007812 Z M 20.386719 17.535156 L 18.035156 15.042969 C 17.363281 14.328125 16.265625 14.328125 15.59375 15.042969 L 13.714844 17.03125 L 11.089844 14.167969 C 10.429688 13.449219 9.347656 13.449219 8.6875 14.167969 L 5.617188 17.515625 L 5.617188 8.410156 C 5.617188 7.769531 6.136719 7.25 6.773438 7.25 L 19.230469 7.25 C 19.867188 7.25 20.386719 7.769531 20.386719 8.410156 Z M 20.386719 17.535156 " fill-opacity="1" fill-rule="nonzero"/></g><path fill="#ffffff" d="M 18.476562 10.652344 C 18.476562 10.890625 18.433594 11.117188 18.339844 11.335938 C 18.25 11.550781 18.121094 11.746094 17.957031 11.910156 C 17.789062 12.078125 17.597656 12.207031 17.378906 12.296875 C 17.160156 12.386719 16.933594 12.433594 16.699219 12.433594 C 16.460938 12.433594 16.234375 12.386719 16.015625 12.296875 C 15.796875 12.207031 15.605469 12.078125 15.4375 11.910156 C 15.273438 11.746094 15.144531 11.550781 15.054688 11.335938 C 14.964844 11.117188 14.917969 10.890625 14.917969 10.652344 C 14.917969 10.417969 14.964844 10.191406 15.054688 9.972656 C 15.144531 9.753906 15.273438 9.5625 15.4375 9.394531 C 15.605469 9.226562 15.796875 9.101562 16.015625 9.007812 C 16.234375 8.917969 16.460938 8.875 16.699219 8.875 C 16.933594 8.875 17.160156 8.917969 17.378906 9.007812 C 17.597656 9.101562 17.789062 9.226562 17.957031 9.394531 C 18.121094 9.5625 18.25 9.753906 18.339844 9.972656 C 18.433594 10.191406 18.476562 10.417969 18.476562 10.652344 Z M 18.476562 10.652344 " fill-opacity="1" fill-rule="nonzero"/><g clip-path="url(#9bbd26720e)"><path fill="#ffffff" d="M 46.214844 6.007812 L 33.757812 6.007812 C 32.433594 6.007812 31.359375 7.082031 31.359375 8.410156 L 31.359375 18.195312 C 31.359375 19.519531 32.433594 20.597656 33.757812 20.597656 L 46.214844 20.597656 C 47.539062 20.597656 48.617188 19.519531 48.617188 18.195312 L 48.617188 8.410156 C 48.617188 7.082031 47.539062 6.007812 46.214844 6.007812 Z M 47.371094 17.535156 L 45.019531 15.042969 C 44.351562 14.328125 43.25 14.328125 42.578125 15.042969 L 40.703125 17.03125 L 38.078125 14.167969 C 37.414062 13.449219 36.332031 13.449219 35.671875 14.167969 L 32.601562 17.515625 L 32.601562 8.410156 C 32.601562 7.769531 33.121094 7.25 33.757812 7.25 L 46.214844 7.25 C 46.851562 7.25 47.371094 7.769531 47.371094 8.410156 Z M 47.371094 17.535156 " fill-opacity="1" fill-rule="nonzero"/></g><path fill="#ffffff" d="M 45.460938 10.652344 C 45.460938 10.890625 45.417969 11.117188 45.328125 11.335938 C 45.238281 11.550781 45.109375 11.746094 44.941406 11.910156 C 44.773438 12.078125 44.582031 12.207031 44.363281 12.296875 C 44.144531 12.386719 43.917969 12.433594 43.683594 12.433594 C 43.445312 12.433594 43.21875 12.386719 43 12.296875 C 42.785156 12.207031 42.589844 12.078125 42.425781 11.910156 C 42.257812 11.746094 42.128906 11.550781 42.039062 11.335938 C 41.949219 11.117188 41.902344 10.890625 41.902344 10.652344 C 41.902344 10.417969 41.949219 10.191406 42.039062 9.972656 C 42.128906 9.753906 42.257812 9.5625 42.425781 9.394531 C 42.589844 9.226562 42.785156 9.101562 43 9.007812 C 43.21875 8.917969 43.445312 8.875 43.683594 8.875 C 43.917969 8.875 44.144531 8.917969 44.363281 9.007812 C 44.582031 9.101562 44.773438 9.226562 44.941406 9.394531 C 45.109375 9.5625 45.238281 9.753906 45.328125 9.972656 C 45.417969 10.191406 45.460938 10.417969 45.460938 10.652344 Z M 45.460938 10.652344 " fill-opacity="1" fill-rule="nonzero"/></g></g></svg>