<svg xmlns="http://www.w3.org/2000/svg" xmlns:xlink="http://www.w3.org/1999/xlink" width="84" zoomAndPan="magnify" viewBox="0 0 63 80.999996" height="108" preserveAspectRatio="xMidYMid meet" version="1.0"><defs><filter x="0%" y="0%" width="100%" height="100%" id="15ad0305db"><feColorMatrix values="0 0 0 0 1 0 0 0 0 1 0 0 0 0 1 0 0 0 1 0" color-interpolation-filters="sRGB"/></filter><clipPath id="b22e084fe1"><path d="M 6.300781 6.300781 L 56.757812 6.300781 L 56.757812 54.859375 L 6.300781 54.859375 Z M 6.300781 6.300781 " clip-rule="nonzero"/></clipPath><clipPath id="a69b9dffff"><path d="M 9.300781 6.300781 L 53.699219 6.300781 C 55.355469 6.300781 56.699219 7.644531 56.699219 9.300781 L 56.699219 51.859375 C 56.699219 53.515625 55.355469 54.859375 53.699219 54.859375 L 9.300781 54.859375 C 7.644531 54.859375 6.300781 53.515625 6.300781 51.859375 L 6.300781 9.300781 C 6.300781 7.644531 7.644531 6.300781 9.300781 6.300781 Z M 9.300781 6.300781 " clip-rule="nonzero"/></clipPath><clipPath id="3aecaeb955"><path d="M 0.300781 0.300781 L 50.757812 0.300781 L 50.757812 48.859375 L 0.300781 48.859375 Z M 0.300781 0.300781 " clip-rule="nonzero"/></clipPath><clipPath id="43ab31449e"><path d="M 3.300781 0.300781 L 47.699219 0.300781 C 49.355469 0.300781 50.699219 1.644531 50.699219 3.300781 L 50.699219 45.859375 C 50.699219 47.515625 49.355469 48.859375 47.699219 48.859375 L 3.300781 48.859375 C 1.644531 48.859375 0.300781 47.515625 0.300781 45.859375 L 0.300781 3.300781 C 0.300781 1.644531 1.644531 0.300781 3.300781 0.300781 Z M 3.300781 0.300781 " clip-rule="nonzero"/></clipPath><clipPath id="352db86431"><rect x="0" width="51" y="0" height="49"/></clipPath><clipPath id="f69c1829f3"><path d="M 23.121094 19.300781 L 39.621094 19.300781 L 39.621094 33.550781 L 23.121094 33.550781 Z M 23.121094 19.300781 " clip-rule="nonzero"/></clipPath><mask id="c6997c4a99"><g filter="url(#15ad0305db)"><rect x="-6.3" width="75.6" fill="#000000" y="-8.1" height="97.199995" fill-opacity="0.7"/></g></mask><clipPath id="2cc195a856"><path d="M 0.0625 0.375 L 40.941406 0.375 L 40.941406 6.601562 L 0.0625 6.601562 Z M 0.0625 0.375 " clip-rule="nonzero"/></clipPath><clipPath id="07a49f6e81"><path d="M 37.15625 0.375 C 39.242188 0.375 40.9375 1.769531 40.9375 3.488281 C 40.9375 5.207031 39.242188 6.601562 37.15625 6.601562 L 3.84375 6.601562 C 1.757812 6.601562 0.0625 5.207031 0.0625 3.488281 C 0.0625 1.769531 1.757812 0.375 3.84375 0.375 Z M 37.15625 0.375 " clip-rule="nonzero"/></clipPath><clipPath id="4db53373e3"><path d="M 0.0625 0.375 L 40.941406 0.375 L 40.941406 6.601562 L 0.0625 6.601562 Z M 0.0625 0.375 " clip-rule="nonzero"/></clipPath><clipPath id="eadda92b02"><path d="M 37.15625 0.375 C 39.242188 0.375 40.9375 1.769531 40.9375 3.488281 C 40.9375 5.207031 39.242188 6.601562 37.15625 6.601562 L 3.84375 6.601562 C 1.757812 6.601562 0.0625 5.207031 0.0625 3.488281 C 0.0625 1.769531 1.757812 0.375 3.84375 0.375 Z M 37.15625 0.375 " clip-rule="nonzero"/></clipPath><clipPath id="b6121662f0"><rect x="0" width="41" y="0" height="7"/></clipPath><clipPath id="ce966c67a4"><rect x="0" width="42" y="0" height="7"/></clipPath><clipPath id="d13332fd19"><path d="M 6.300781 57.921875 L 56.757812 57.921875 L 56.757812 81 L 6.300781 81 Z M 6.300781 57.921875 " clip-rule="nonzero"/></clipPath><clipPath id="26b0a1d530"><path d="M 9.300781 57.921875 L 53.699219 57.921875 C 55.355469 57.921875 56.699219 59.261719 56.699219 60.921875 L 56.699219 103.480469 C 56.699219 105.136719 55.355469 106.480469 53.699219 106.480469 L 9.300781 106.480469 C 7.644531 106.480469 6.300781 105.136719 6.300781 103.480469 L 6.300781 60.921875 C 6.300781 59.261719 7.644531 57.921875 9.300781 57.921875 Z M 9.300781 57.921875 " clip-rule="nonzero"/></clipPath><clipPath id="50299431d8"><path d="M 0.300781 0.921875 L 50.757812 0.921875 L 50.757812 24 L 0.300781 24 Z M 0.300781 0.921875 " clip-rule="nonzero"/></clipPath><clipPath id="df4e8f1fee"><path d="M 3.300781 0.921875 L 47.699219 0.921875 C 49.355469 0.921875 50.699219 2.261719 50.699219 3.921875 L 50.699219 46.480469 C 50.699219 48.136719 49.355469 49.480469 47.699219 49.480469 L 3.300781 49.480469 C 1.644531 49.480469 0.300781 48.136719 0.300781 46.480469 L 0.300781 3.921875 C 0.300781 2.261719 1.644531 0.921875 3.300781 0.921875 Z M 3.300781 0.921875 " clip-rule="nonzero"/></clipPath><clipPath id="8a46da1c61"><rect x="0" width="51" y="0" height="24"/></clipPath><clipPath id="e274c4fdad"><path d="M 23.121094 70.921875 L 39.621094 70.921875 L 39.621094 81 L 23.121094 81 Z M 23.121094 70.921875 " clip-rule="nonzero"/></clipPath></defs><rect x="-6.3" width="75.6" fill="#ffffff" y="-8.1" height="97.199995" fill-opacity="1"/><rect x="-6.3" width="75.6" fill="#ffffff" y="-8.1" height="97.199995" fill-opacity="1"/><g clip-path="url(#b22e084fe1)"><g clip-path="url(#a69b9dffff)"><g transform="matrix(1, 0, 0, 1, 6, 6)"><g clip-path="url(#352db86431)"><g clip-path="url(#3aecaeb955)"><g clip-path="url(#43ab31449e)"><path fill="#745eaf" d="M 0.300781 0.300781 L 50.757812 0.300781 L 50.757812 48.859375 L 0.300781 48.859375 Z M 0.300781 0.300781 " fill-opacity="1" fill-rule="nonzero"/></g></g></g></g></g></g><g clip-path="url(#f69c1829f3)"><path fill="#ffffff" d="M 37.535156 19.292969 L 25.453125 19.292969 C 24.167969 19.292969 23.125 20.339844 23.125 21.621094 L 23.125 31.117188 C 23.125 32.402344 24.167969 33.445312 25.453125 33.445312 L 37.535156 33.445312 C 38.820312 33.445312 39.867188 32.402344 39.867188 31.117188 L 39.867188 21.621094 C 39.867188 20.339844 38.820312 19.292969 37.535156 19.292969 Z M 38.65625 30.476562 L 36.378906 28.054688 C 35.726562 27.367188 34.660156 27.367188 34.007812 28.054688 L 32.1875 29.988281 L 29.640625 27.210938 C 29 26.511719 27.949219 26.511719 27.308594 27.210938 L 24.332031 30.457031 L 24.332031 21.621094 C 24.332031 21.003906 24.835938 20.5 25.453125 20.5 L 37.535156 20.5 C 38.15625 20.5 38.65625 21.003906 38.65625 21.621094 Z M 38.65625 30.476562 " fill-opacity="1" fill-rule="nonzero"/></g><path fill="#ffffff" d="M 36.804688 23.800781 C 36.804688 24.03125 36.761719 24.25 36.675781 24.460938 C 36.585938 24.671875 36.460938 24.859375 36.300781 25.019531 C 36.136719 25.183594 35.953125 25.308594 35.738281 25.394531 C 35.527344 25.484375 35.308594 25.527344 35.078125 25.527344 C 34.851562 25.527344 34.628906 25.484375 34.417969 25.394531 C 34.207031 25.308594 34.019531 25.183594 33.859375 25.019531 C 33.695312 24.859375 33.574219 24.671875 33.484375 24.460938 C 33.398438 24.25 33.351562 24.03125 33.351562 23.800781 C 33.351562 23.570312 33.398438 23.351562 33.484375 23.140625 C 33.574219 22.929688 33.695312 22.742188 33.859375 22.578125 C 34.019531 22.417969 34.207031 22.292969 34.417969 22.207031 C 34.628906 22.117188 34.851562 22.074219 35.078125 22.074219 C 35.308594 22.074219 35.527344 22.117188 35.738281 22.207031 C 35.953125 22.292969 36.136719 22.417969 36.300781 22.578125 C 36.460938 22.742188 36.585938 22.929688 36.675781 23.140625 C 36.761719 23.351562 36.804688 23.570312 36.804688 23.800781 Z M 36.804688 23.800781 " fill-opacity="1" fill-rule="nonzero"/><g mask="url(#c6997c4a99)"><g transform="matrix(1, 0, 0, 1, 11, 45)"><g clip-path="url(#ce966c67a4)"><g clip-path="url(#2cc195a856)"><g clip-path="url(#07a49f6e81)"><g transform="matrix(1, 0, 0, 1, 0, 0.000000000000007105)"><g clip-path="url(#b6121662f0)"><g clip-path="url(#4db53373e3)"><g clip-path="url(#eadda92b02)"><path fill="#e5e5ff" d="M 0.0625 0.375 L 40.941406 0.375 L 40.941406 6.601562 L 0.0625 6.601562 Z M 0.0625 0.375 " fill-opacity="1" fill-rule="nonzero"/></g></g></g></g></g></g></g></g></g><g clip-path="url(#d13332fd19)"><g clip-path="url(#26b0a1d530)"><g transform="matrix(1, 0, 0, 1, 6, 57)"><g clip-path="url(#8a46da1c61)"><g clip-path="url(#50299431d8)"><g clip-path="url(#df4e8f1fee)"><path fill="#745eaf" d="M 0.300781 0.921875 L 50.757812 0.921875 L 50.757812 49.480469 L 0.300781 49.480469 Z M 0.300781 0.921875 " fill-opacity="1" fill-rule="nonzero"/></g></g></g></g></g></g><g clip-path="url(#e274c4fdad)"><path fill="#ffffff" d="M 37.535156 70.914062 L 25.453125 70.914062 C 24.167969 70.914062 23.125 71.957031 23.125 73.242188 L 23.125 82.734375 C 23.125 84.019531 24.167969 85.066406 25.453125 85.066406 L 37.535156 85.066406 C 38.820312 85.066406 39.867188 84.019531 39.867188 82.734375 L 39.867188 73.242188 C 39.867188 71.957031 38.820312 70.914062 37.535156 70.914062 Z M 38.65625 82.09375 L 36.378906 79.675781 C 35.726562 78.984375 34.660156 78.984375 34.007812 79.675781 L 32.1875 81.609375 L 29.640625 78.832031 C 29 78.128906 27.949219 78.128906 27.308594 78.832031 L 24.332031 82.078125 L 24.332031 73.242188 C 24.332031 72.625 24.835938 72.121094 25.453125 72.121094 L 37.535156 72.121094 C 38.15625 72.121094 38.65625 72.625 38.65625 73.242188 Z M 38.65625 82.09375 " fill-opacity="1" fill-rule="nonzero"/></g><path fill="#ffffff" d="M 36.804688 75.421875 C 36.804688 75.648438 36.761719 75.871094 36.675781 76.082031 C 36.585938 76.292969 36.460938 76.480469 36.300781 76.640625 C 36.136719 76.804688 35.953125 76.929688 35.738281 77.015625 C 35.527344 77.101562 35.308594 77.148438 35.078125 77.148438 C 34.851562 77.148438 34.628906 77.101562 34.417969 77.015625 C 34.207031 76.929688 34.019531 76.804688 33.859375 76.640625 C 33.695312 76.480469 33.574219 76.292969 33.484375 76.082031 C 33.398438 75.871094 33.351562 75.648438 33.351562 75.421875 C 33.351562 75.191406 33.398438 74.972656 33.484375 74.761719 C 33.574219 74.546875 33.695312 74.363281 33.859375 74.199219 C 34.019531 74.039062 34.207031 73.914062 34.417969 73.824219 C 34.628906 73.738281 34.851562 73.695312 35.078125 73.695312 C 35.308594 73.695312 35.527344 73.738281 35.738281 73.824219 C 35.953125 73.914062 36.136719 74.039062 36.300781 74.199219 C 36.460938 74.363281 36.585938 74.546875 36.675781 74.761719 C 36.761719 74.972656 36.804688 75.191406 36.804688 75.421875 Z M 36.804688 75.421875 " fill-opacity="1" fill-rule="nonzero"/></svg>